<svg width="1440" height="759" viewBox="0 0 1440 759" fill="none" xmlns="http://www.w3.org/2000/svg">
<g id="background-ondas-home">
<path id="onda-05" class="onda-05" opacity="0.4" d="M0 0V703.244C96 661.621 192 628.532 288 603.979C384 579.425 480 552.165 576 522.199C672 492.232 768 489.238 864 513.214C960 537.191 1056 483.509 1152 352.169C1248 220.828 1344 222.879 1440 358.322V0H0Z" fill="url(#paint0_linear_136_195)"/>
<path id="onda-04" class="onda-04" opacity="0.4" d="M0 0V721.363C96 705.353 192 681.219 288 648.959C384 616.7 480 583.313 576 548.799C672 514.284 768 497.871 864 499.559C960 501.247 1056 462.553 1152 383.479C1248 304.404 1344 306.47 1440 389.677V0H0Z" fill="url(#paint1_linear_136_195)"/>
<path id="onda-03" class="onda-03" opacity="0.4" d="M0 0V644.036C96 707.734 192 720.905 288 683.548C384 646.191 480 590.826 576 517.452C672 444.078 768 425.647 864 462.158C960 498.669 1056 487.712 1152 429.287C1248 370.862 1344 321.348 1440 280.745V0H0Z" fill="url(#paint2_linear_136_195)"/>
<path id="onda-02" class="onda-02" opacity="0.4" d="M0 0V759C96 732.369 192 704.27 288 674.702C384 645.134 480 602.153 576 545.759C672 489.365 768 453.126 864 437.044C960 420.962 1056 397.997 1152 368.149C1248 338.301 1344 322.81 1440 321.677V0H0Z" fill="url(#paint3_linear_136_195)"/>
<path id="onda-01" class="onda-01" opacity="0.4" d="M0 0V658.434C96 672.454 192 660.475 288 622.498C384 584.52 480 556.107 576 537.256C672 518.406 768 482.008 864 428.064C960 374.119 1056 349.61 1152 354.538C1248 359.466 1344 335.413 1440 282.381V0H0Z" fill="url(#paint4_linear_136_195)"/>
</g>
<defs>
<linearGradient id="paint0_linear_136_195" x1="0" y1="0" x2="1440" y2="0" gradientUnits="userSpaceOnUse">
<stop stop-color="#04284D"/>
<stop offset="1" stop-color="#2085DE"/>
</linearGradient>
<linearGradient id="paint1_linear_136_195" x1="0" y1="0" x2="1440" y2="0" gradientUnits="userSpaceOnUse">
<stop stop-color="#04284D"/>
<stop offset="1" stop-color="#2085DE"/>
</linearGradient>
<linearGradient id="paint2_linear_136_195" x1="0" y1="0" x2="1440" y2="0" gradientUnits="userSpaceOnUse">
<stop stop-color="#04284D"/>
<stop offset="1" stop-color="#2085DE"/>
</linearGradient>
<linearGradient id="paint3_linear_136_195" x1="0" y1="0" x2="1440" y2="0" gradientUnits="userSpaceOnUse">
<stop stop-color="#04284D"/>
<stop offset="1" stop-color="#2085DE"/>
</linearGradient>
<linearGradient id="paint4_linear_136_195" x1="0" y1="0" x2="1440" y2="0" gradientUnits="userSpaceOnUse">
<stop stop-color="#04284D"/>
<stop offset="1" stop-color="#34A0FF"/>
</linearGradient>
</defs>
</svg>
