<svg width="35" height="35" viewBox="0 0 35 35" fill="none" xmlns="http://www.w3.org/2000/svg">
<g id="icon-noticias">
<path id="Vector" d="M17.0693 4.69429C17.143 5.10996 17.4715 5.97482 17.7062 6.35027C18.3498 7.40956 19.3018 8.26772 20.4818 8.851C21.4606 9.33371 22.0774 9.48791 23.063 9.50132C24.1826 9.51473 24.4776 9.42087 26.2341 8.49567C26.7705 8.21408 26.7973 8.27442 25.8453 7.4833C23.6396 5.6329 20.9176 4.58031 18.1152 4.47304L17.0223 4.43282L17.0693 4.69429Z" fill="white"/>
<path id="Vector_2" d="M15.1183 4.62724C11.9404 5.19041 8.94359 7.04081 6.98591 9.64881C4.08962 13.5105 3.53986 18.6528 5.56458 23.0039L5.85287 23.6207L6.06071 23.4732C6.75126 22.9905 7.45522 22.1189 8.93688 19.94C10.9281 17.0102 12.0879 15.8302 14.0925 14.7039C14.6959 14.362 14.9708 14.1542 15.4535 13.6714C16.3854 12.7462 16.8145 11.8143 16.9754 10.3528C17.1095 9.13258 16.9419 7.87216 16.3452 5.61278L16.0569 4.51997L15.8558 4.52667C15.7485 4.52667 15.4133 4.5736 15.1183 4.62724Z" fill="white"/>
<path id="Vector_3" d="M26.9247 9.57502C26.194 10.3058 25.7716 11.3718 25.5168 13.1484C25.4565 13.5641 25.3358 14.8648 25.2419 16.0313C24.9671 19.5243 24.6989 21.7099 24.424 22.7893C23.8675 24.9817 22.6406 26.5974 20.5556 27.8981C19.8583 28.3271 18.5241 28.9909 16.6603 29.8289L15.3195 30.4323L15.6212 30.4793C15.7888 30.5061 16.3922 30.5463 16.962 30.5731C20.6293 30.734 24.1424 29.3462 26.7504 26.7114C30.6591 22.7625 31.658 16.6682 29.1975 11.7606C28.6142 10.5941 27.6421 9.14594 27.4477 9.14594C27.394 9.14594 27.1594 9.34037 26.9247 9.57502Z" fill="white"/>
<path id="Vector_4" d="M20.2673 9.88339C19.7913 10.051 19.2348 10.4332 18.8996 10.8086C18.7521 10.9829 18.4169 11.4656 18.1554 11.888C17.894 12.3104 17.5051 12.8802 17.2906 13.1618C16.7877 13.8323 15.4402 15.1396 14.4881 15.8838C12.7651 17.2314 12.3897 17.5532 11.9673 18.0158C11.1628 18.8941 10.8745 19.7522 11.0823 20.664C11.2432 21.3747 11.498 21.9446 12.4433 23.6609C13.2009 25.0554 13.6166 25.88 14.5217 27.7707C14.7831 28.307 14.8703 28.421 15.1318 28.5886C15.9095 29.0847 16.8548 28.9842 18.3365 28.2467C19.2952 27.7707 20.1668 27.127 21.0249 26.2622C22.4932 24.7872 22.996 23.7346 23.5659 20.9188C23.881 19.3366 23.9882 18.4382 24.0754 16.4671C24.1961 13.9395 24.0352 12.6925 23.4318 11.4589C23.0832 10.7416 22.6004 10.2186 22.0574 9.95714C21.568 9.72919 20.7769 9.69567 20.2673 9.88339Z" fill="white"/>
<path id="Vector_5" d="M8.21955 23.7348C7.71002 23.8487 7.18707 24.0499 6.69095 24.3314L6.36914 24.5125L6.63732 24.9013C7.30775 25.8869 8.50113 27.1607 9.41963 27.8579C10.5124 28.696 11.9271 29.4536 13.1942 29.8894L13.878 30.124V29.9564C13.878 29.6346 13.6032 28.4211 13.3752 27.7373C12.8255 26.0947 11.8734 24.7404 10.8544 24.1437C10.0834 23.6945 9.09112 23.5403 8.21955 23.7348Z" fill="white"/>
<g id="anime-letras">
<path id="Vector_6" d="M17.8135 0.041449C17.4716 0.13531 17.2771 0.430303 17.3241 0.792339C17.3643 1.14097 17.5118 1.26835 18.0682 1.45607C18.3498 1.55664 18.5376 1.6505 18.5376 1.71084C18.5376 1.85163 18.0817 1.86504 17.8336 1.73766C17.6258 1.63039 17.6123 1.63039 17.4581 1.77788C17.371 1.85833 17.2972 1.9656 17.2972 2.01253C17.2972 2.23378 18.1018 2.49525 18.5376 2.4148C18.9063 2.34105 19.1745 2.05276 19.1745 1.71754C19.1745 1.32198 18.9867 1.12756 18.4303 0.959948C18.0749 0.852678 17.9677 0.792339 17.9811 0.705182C18.0146 0.537573 18.4035 0.530868 18.685 0.698478L18.9264 0.839269L19.1275 0.644843C19.3555 0.416894 19.3287 0.343146 18.9867 0.168832C18.6716 0.00792715 18.142 -0.0457078 17.8135 0.041449Z" fill="white"/>
<path id="Vector_7" d="M15.5877 0.242454C15.5341 0.376542 15.7352 2.38115 15.8023 2.44819C15.8358 2.48171 15.9699 2.48842 16.1107 2.4616L16.3587 2.42138L16.352 2.07945C16.3453 1.89173 16.3118 1.3889 16.2649 0.966527L16.1911 0.195524L15.9028 0.175411C15.7084 0.162002 15.6078 0.182115 15.5877 0.242454Z" fill="white"/>
<path id="Vector_8" d="M20.4886 0.59783C20.4617 0.731917 20.455 0.8593 20.4751 0.892822C20.4953 0.919639 20.6897 0.986683 20.9042 1.03361C21.3936 1.13418 21.4741 1.18111 21.4138 1.32861C21.3802 1.42247 21.3199 1.43588 21.1791 1.40906C20.5489 1.27497 20.6025 1.26827 20.5489 1.50292C20.4953 1.75769 20.5489 1.80462 20.9646 1.87166C21.1858 1.90518 21.2529 1.94541 21.2529 2.03927C21.2529 2.2337 21.159 2.25381 20.683 2.13313C20.4215 2.06609 20.2137 2.04597 20.1802 2.0795C20.1466 2.11302 20.1064 2.24711 20.0997 2.37449L20.0796 2.60244L20.8506 2.78346C21.273 2.88402 21.6417 2.94436 21.6685 2.92425C21.7155 2.87732 22.1915 0.919639 22.1915 0.785552C22.1915 0.731917 20.797 0.363177 20.5958 0.363177C20.5623 0.363177 20.5087 0.470446 20.4886 0.59783Z" fill="white"/>
<path id="Vector_9" d="M13.4759 0.571029C13.1608 0.644777 12.8859 0.725229 12.8591 0.752047C12.8389 0.778864 12.8322 0.886134 12.8524 0.9867C12.8859 1.16101 12.9127 1.17442 13.1004 1.1409C13.2144 1.11408 13.4155 1.08056 13.5496 1.06045L13.791 1.02022L13.9586 1.77782L14.1262 2.54211L14.3742 2.53541C14.515 2.52871 14.6558 2.49518 14.6894 2.46166C14.7296 2.42144 14.6692 2.03929 14.5284 1.42919C14.2737 0.316263 14.3407 0.369898 13.4759 0.571029Z" fill="white"/>
<path id="Vector_10" d="M11.317 1.18116C11.2097 1.21469 11.1293 1.28843 11.1293 1.33536C11.1293 1.47616 11.7997 3.27293 11.8869 3.36008C11.9472 3.42042 12.021 3.40701 12.202 3.32656C12.3294 3.25952 12.4299 3.17907 12.4299 3.14554C12.4232 3.10532 12.2556 2.63601 12.0612 2.09296C11.679 1.05378 11.679 1.04708 11.317 1.18116Z" fill="white"/>
<path id="Vector_11" d="M23.5525 1.26837C23.5324 1.32871 23.5324 1.50302 23.5458 1.66393C23.5793 1.93881 23.5659 1.95892 23.3648 2.05949C23.1167 2.18017 22.8619 2.62936 22.8619 2.95787C22.8619 3.27298 23.0765 3.47411 23.6933 3.74229C24.0017 3.87637 24.29 3.98364 24.3235 3.98364C24.3637 3.98364 24.9738 2.68299 25.2621 1.96563C25.2889 1.90529 24.9202 1.70416 24.7861 1.70416C24.7325 1.70416 24.6386 1.82483 24.5716 1.97233C24.5045 2.11983 24.4308 2.24051 24.4039 2.24051C24.2833 2.24051 24.2028 2.04608 24.2028 1.75779C24.2028 1.45609 24.1894 1.42928 23.9346 1.30189C23.6195 1.14099 23.6061 1.14099 23.5525 1.26837ZM24.1693 2.77686C24.2296 2.87072 24.0553 3.17912 23.9413 3.17912C23.7871 3.17912 23.5324 2.9914 23.5324 2.87742C23.5324 2.83049 23.5793 2.74333 23.6329 2.68299C23.7134 2.60254 23.7804 2.59584 23.9346 2.65618C24.0486 2.6897 24.1492 2.75004 24.1693 2.77686Z" fill="white"/>
<path id="Vector_12" d="M9.13808 2.16004C8.40731 2.5556 8.35367 2.62265 8.58162 2.91093L8.709 3.07854L9.11797 2.8573C9.52023 2.63605 9.72136 2.61594 9.72136 2.79696C9.72136 2.85059 9.64091 2.92434 9.54035 2.97127C9.43308 3.0182 9.28558 3.09866 9.19842 3.15229C9.05763 3.24615 9.05763 3.25956 9.15149 3.44728C9.21183 3.56126 9.27217 3.64841 9.29228 3.64841C9.30569 3.64841 9.4666 3.57467 9.64762 3.48751C9.88897 3.36013 9.98954 3.34001 10.0499 3.40035C10.1773 3.52774 10.1437 3.56126 9.71466 3.78921C9.48671 3.90989 9.29228 4.05068 9.27217 4.09761C9.25206 4.14454 9.30569 4.27192 9.37944 4.37919L9.52694 4.58032L10.2108 4.21829C10.6868 3.96352 10.8946 3.81602 10.8946 3.73557C10.8946 3.58808 9.98283 1.85164 9.88897 1.81812C9.85545 1.79801 9.51353 1.95221 9.13808 2.16004Z" fill="white"/>
<path id="Vector_13" d="M6.94572 3.52097C6.85186 3.59472 6.77141 3.68188 6.77141 3.7154C6.77141 3.74222 6.92561 3.95676 7.11333 4.178C7.30106 4.40595 7.42174 4.58697 7.38821 4.58697C7.34799 4.58697 7.07311 4.49311 6.77141 4.38584C6.46971 4.27186 6.20824 4.18471 6.18143 4.18471C6.15461 4.18471 6.03393 4.27186 5.90655 4.37243L5.6853 4.56015L6.22165 5.23059C6.51665 5.59263 6.85186 5.99489 6.95913 6.12227L7.14686 6.35022L7.3614 6.19602C7.48207 6.10886 7.57594 6.015 7.57594 5.98818C7.57594 5.96137 7.42174 5.75353 7.23401 5.53229C7.04629 5.30434 6.92561 5.12332 6.96584 5.12332C6.99936 5.12332 7.28765 5.21718 7.60275 5.33116L8.17933 5.53899L8.37376 5.37809C8.48773 5.29763 8.57489 5.17695 8.57489 5.12332C8.58159 5.01605 7.26753 3.38018 7.18038 3.38018C7.14686 3.38018 7.04629 3.44052 6.94572 3.52097Z" fill="white"/>
<path id="Vector_14" d="M27.5214 3.60809C27.0186 3.82263 26.9515 4.32546 27.3538 4.86181C27.6219 5.22384 27.6957 5.4585 27.5348 5.4585C27.4141 5.4585 27.0856 5.13669 27.0186 4.94896C26.9716 4.83499 26.9046 4.78806 26.7705 4.78806C26.3749 4.78806 26.328 4.98249 26.6163 5.44509C26.7906 5.73338 27.3202 6.06189 27.6018 6.06189C27.9169 6.06189 28.2253 5.7669 28.2723 5.42497C28.2991 5.19703 28.2723 5.10987 28.0644 4.82158C27.6823 4.28523 27.6689 4.25841 27.7896 4.21148C27.9438 4.15114 28.2052 4.35227 28.3594 4.66068C28.4935 4.91544 28.5136 4.92885 28.7148 4.88862C28.8354 4.86181 28.9561 4.81488 28.9829 4.78806C29.0634 4.71431 28.8556 4.25171 28.641 4.03046C28.2522 3.6282 27.8432 3.474 27.5214 3.60809Z" fill="white"/>
<path id="Vector_15" d="M29.3651 6.37696C29.0299 6.88649 28.7617 7.33569 28.7617 7.37591C28.7617 7.41614 28.8757 7.57704 29.0165 7.73795L29.2645 8.01953L30.3037 7.55023C30.8736 7.29546 31.3496 7.0474 31.363 7.00717C31.3764 6.96024 31.3094 6.83956 31.2088 6.73229C31.0479 6.56468 31.0077 6.55127 30.8602 6.61832C30.706 6.68536 30.6725 6.67195 30.4713 6.43059C30.2635 6.18924 30.2568 6.16242 30.3507 6.02163C30.4378 5.88084 30.4311 5.84731 30.297 5.6663C30.2099 5.55232 30.1026 5.45846 30.0557 5.45846C30.002 5.45846 29.6936 5.87413 29.3651 6.37696ZM30.1026 6.80604C30.1495 6.87979 30.1696 6.95354 30.1562 6.96694C30.0892 7.02728 29.5528 7.27535 29.5327 7.25523C29.4858 7.2083 29.8679 6.66525 29.9484 6.66525C29.9953 6.66525 30.0624 6.72559 30.1026 6.80604Z" fill="white"/>
<path id="Vector_16" d="M4.12988 6.196C4.03602 6.31668 3.95557 6.43066 3.95557 6.46418C3.95557 6.491 4.24385 6.75917 4.59248 7.05416L5.2294 7.59051L5.05508 7.79835C4.96122 7.91232 4.89418 8.05312 4.91429 8.10675C4.95452 8.20061 5.28303 8.44867 5.32326 8.40174C5.32996 8.38833 5.58473 8.08664 5.88643 7.73131C6.18812 7.36927 6.43618 7.04746 6.43618 7.01394C6.43618 6.97371 6.34232 6.87985 6.22835 6.79269L6.02051 6.6519L5.83279 6.87315C5.65848 7.08769 5.63836 7.09439 5.52439 6.99383C5.45064 6.94019 5.20258 6.72565 4.96122 6.52452C4.26397 5.93453 4.33101 5.96135 4.12988 6.196Z" fill="white"/>
<path id="Vector_17" d="M2.33307 8.73696C2.11853 9.1057 1.94421 9.42751 1.94421 9.46103C1.94421 9.54819 2.33977 9.76273 2.41352 9.7158C2.44704 9.69569 2.56102 9.53478 2.66158 9.36047C2.92976 8.88446 2.94317 8.87105 3.09066 8.9448C3.21134 9.01184 3.20464 9.03195 3.01691 9.32695C2.81578 9.66217 2.82919 9.74262 3.09737 9.89011C3.19793 9.94375 3.25157 9.90352 3.43258 9.61523C3.65383 9.2532 3.69405 9.22638 3.81473 9.37388C3.87507 9.44763 3.84155 9.5549 3.64712 9.87C3.51304 10.0979 3.42588 10.3125 3.4527 10.3527C3.47281 10.3862 3.58008 10.4667 3.68735 10.5203C3.90859 10.6343 3.87507 10.6678 4.35108 9.85659C4.54551 9.52808 4.6863 9.22638 4.67289 9.18615C4.63267 9.08559 2.92305 8.07323 2.80237 8.07323C2.75544 8.07323 2.5409 8.37493 2.33307 8.73696Z" fill="white"/>
<path id="Vector_18" d="M31.5776 8.38832C31.4301 8.44195 30.1697 9.15262 30.1697 9.18614C30.1697 9.2867 30.411 9.68226 30.4714 9.68226C30.5183 9.68226 30.8267 9.52806 31.1619 9.34034C31.8592 8.95819 32.1072 8.93137 32.2078 9.22636C32.295 9.46772 32.2279 9.54147 31.4703 9.96384C31.1217 10.1583 30.8401 10.346 30.8401 10.3862C30.8401 10.4197 30.9005 10.5538 30.9742 10.6745L31.1083 10.8958L31.3295 10.7818C32 10.4399 32.5967 10.051 32.7173 9.88339C32.9788 9.51465 32.8514 8.93137 32.4223 8.55593C32.181 8.34809 31.8659 8.28105 31.5776 8.38832Z" fill="white"/>
<path id="Vector_19" d="M1.34089 11.0098C1.03249 11.3182 0.831358 11.888 0.898402 12.2568C0.958741 12.5585 1.25373 12.7663 1.61577 12.7663C1.87054 12.7663 1.99121 12.6591 2.46723 12.0288C2.55438 11.9216 2.65495 11.8411 2.68847 11.8679C2.81585 11.9417 2.7421 12.2367 2.53427 12.4646C2.32643 12.706 2.32643 12.706 2.4337 12.9406C2.56779 13.2088 2.60131 13.2155 2.84937 13.0211C3.09744 12.8267 3.3522 12.2635 3.3522 11.9082C3.3522 11.5126 3.07732 11.2243 2.70188 11.2243C2.38007 11.2243 2.20575 11.345 1.93088 11.7473C1.68952 12.1093 1.60236 12.183 1.52191 12.1026C1.41464 11.9953 1.54873 11.6333 1.75656 11.4187C1.9644 11.2176 1.9644 11.2109 1.85713 10.983C1.79679 10.8556 1.70963 10.755 1.6694 10.755C1.62918 10.755 1.48168 10.869 1.34089 11.0098Z" fill="white"/>
<path id="Vector_20" d="M33.0258 11.3316C32.771 11.4187 32.5498 11.5059 32.5297 11.5193C32.4961 11.5528 32.7777 12.4378 32.8515 12.5182C32.8783 12.545 32.9788 12.5383 33.0794 12.4981C33.2537 12.4378 33.2604 12.411 33.2202 12.1629C33.1867 11.9484 33.1934 11.8947 33.2805 11.8947C33.4146 11.8947 33.5219 12.1026 33.5219 12.3573C33.5219 12.5987 33.3677 12.7194 32.9051 12.84C32.6168 12.9205 32.5766 12.9138 32.4425 12.7931C32.3218 12.6858 32.3084 12.6121 32.3352 12.3238C32.3687 12.002 32.362 11.9752 32.1676 11.8612C31.9799 11.7539 31.9598 11.7539 31.8592 11.8545C31.7721 11.9349 31.7452 12.0891 31.7452 12.4244C31.7452 12.8065 31.7721 12.9205 31.9263 13.1551C32.2078 13.5775 32.4894 13.6379 33.2001 13.4166C34.0784 13.1417 34.2996 12.7931 34.065 12.0355C33.9443 11.6534 33.6426 11.1505 33.5353 11.1639C33.5085 11.1639 33.2805 11.2377 33.0258 11.3316Z" fill="white"/>
<path id="Vector_21" d="M33.4212 14.677C32.905 14.9117 32.4759 15.1396 32.4625 15.1798C32.4491 15.2201 32.4558 15.4145 32.4826 15.6089L32.5229 15.971L33.4749 16.1118C33.9978 16.1922 34.5275 16.2794 34.6481 16.2995C34.8627 16.333 34.8627 16.333 34.8627 16.0715C34.8627 15.7899 34.7688 15.6491 34.5878 15.6491C34.4671 15.6491 34.3934 15.4681 34.3934 15.1396C34.3934 14.9787 34.4336 14.9117 34.5677 14.8513C34.6817 14.7977 34.7286 14.7374 34.7018 14.6703C34.6817 14.61 34.6615 14.4893 34.6615 14.4021C34.6615 14.1608 34.4805 14.201 33.4212 14.677ZM33.8838 15.3542C33.9107 15.4547 33.9174 15.5419 33.904 15.5553C33.8637 15.5955 33.1866 15.4949 33.1866 15.448C33.1866 15.4011 33.6291 15.2 33.7632 15.1865C33.8101 15.1798 33.8637 15.2603 33.8838 15.3542Z" fill="white"/>
<path id="Vector_22" d="M0.905056 15.2C0.884943 15.2403 0.86483 15.5352 0.851421 15.8504L0.838013 16.4202L1.04585 16.4403L1.25368 16.4604L1.32743 15.8369C1.36095 15.495 1.38107 15.1933 1.36095 15.1598C1.31402 15.0793 0.938578 15.1062 0.905056 15.2Z" fill="white"/>
<path id="Vector_23" d="M31.6312 15.2335C31.4234 15.4748 31.4368 15.5084 31.7854 15.6894C32.0603 15.8235 32.1408 15.8436 32.1877 15.7698C32.2883 15.6156 32.2547 15.5419 31.9866 15.3273C31.7452 15.1329 31.7184 15.1262 31.6312 15.2335Z" fill="white"/>
<path id="Vector_24" d="M0 18.7868C0 19.0616 0.0938612 19.2024 0.274879 19.2024C0.395558 19.2024 0.469306 19.3835 0.469306 19.712C0.469306 19.8729 0.42908 19.9399 0.294992 20.0003C0.181018 20.0539 0.134087 20.1142 0.160905 20.1813C0.181018 20.2416 0.201131 20.3623 0.201131 20.4494C0.201131 20.5567 0.241357 20.6104 0.32181 20.6104C0.382149 20.6104 0.878273 20.4226 1.42133 20.1947L2.41357 19.7723L2.40687 19.5041C2.39346 18.9007 2.43369 18.9276 1.24031 18.7197C0.650324 18.6192 0.127383 18.5387 0.0871568 18.5387C0.0335219 18.532 0 18.6259 0 18.7868ZM1.62916 19.4036C1.67609 19.4505 1.2202 19.6717 1.0794 19.6717C1.01906 19.6717 0.938612 19.3566 0.985543 19.3097C1.02577 19.2695 1.56882 19.3432 1.62916 19.4036Z" fill="white"/>
<path id="Vector_25" d="M33.6224 18.8807C33.609 18.9276 33.5688 19.2025 33.5352 19.4908C33.4749 20.0606 33.5218 20.1679 33.8034 20.1277C33.9442 20.1076 33.9643 20.0539 34.0314 19.5042C34.0716 19.169 34.0917 18.8807 34.0783 18.8472C34.0314 18.7667 33.6559 18.7935 33.6224 18.8807Z" fill="white"/>
<path id="Vector_26" d="M2.63486 19.1757C2.59463 19.2897 2.98349 19.7389 3.13098 19.7389C3.21814 19.7389 3.35223 19.5378 3.35223 19.4104C3.35223 19.3366 2.87622 19.0685 2.74883 19.0685C2.70861 19.0685 2.66168 19.1154 2.63486 19.1757Z" fill="white"/>
<path id="Vector_27" d="M1.50845 21.4819C1.26039 21.5624 1.02574 21.6898 0.905057 21.8172C0.730744 22.0049 0.703926 22.0719 0.71063 22.4071C0.71063 22.6753 0.764265 22.8966 0.891648 23.1647C1.15982 23.7212 1.17994 23.7279 1.75651 23.5536C2.02469 23.4731 2.26604 23.386 2.29957 23.3659C2.3532 23.3122 2.09844 22.4943 1.98446 22.3736C1.92412 22.3066 1.87719 22.3066 1.7431 22.3803C1.64924 22.4273 1.5822 22.4943 1.5889 22.5278C1.59561 22.5613 1.62243 22.6753 1.64254 22.7759C1.68276 22.9301 1.66936 22.9569 1.55538 22.9569C1.35425 22.9569 1.23357 22.5211 1.37436 22.3133C1.50175 22.1121 2.15877 21.9177 2.3465 22.0183C2.5074 22.1054 2.57445 22.3468 2.52081 22.6485C2.48058 22.8429 2.5007 22.8966 2.62808 22.9837C2.84262 23.1379 2.92978 23.1178 3.05046 22.8899C3.25829 22.4809 3.09739 21.7903 2.71524 21.4953C2.48058 21.3076 2.06491 21.3076 1.50845 21.4819Z" fill="white"/>
<path id="Vector_28" d="M31.8927 22.3133C31.6513 22.5479 31.4435 23.0441 31.4435 23.3659C31.4435 23.6273 31.7385 23.9491 32.0268 24.0028C32.362 24.0631 32.5966 23.929 32.8983 23.4999C33.1933 23.0776 33.3207 23.0038 33.3207 23.2586C33.3207 23.4865 33.1598 23.7949 32.9721 23.9223C32.8246 24.0296 32.8246 24.0296 32.9453 24.2642C33.019 24.3916 33.0928 24.4989 33.1129 24.4989C33.133 24.4989 33.247 24.4386 33.3609 24.3715C33.6425 24.1972 33.9375 23.6005 33.9442 23.1848C33.9442 22.91 33.9174 22.8429 33.7297 22.6753C33.5755 22.5412 33.4481 22.4876 33.2604 22.4876C32.952 22.4876 32.7307 22.6418 32.4693 23.0575C32.362 23.2251 32.2279 23.3592 32.1676 23.3592C31.9463 23.3592 32.0469 23.0172 32.362 22.682C32.5229 22.5077 32.5229 22.5077 32.4022 22.2999C32.3352 22.1792 32.248 22.0853 32.2011 22.0853C32.1541 22.0853 32.0134 22.1859 31.8927 22.3133Z" fill="white"/>
<path id="Vector_29" d="M2.88953 24.4117C2.12523 24.8341 1.94421 25.0352 1.94421 25.4643C1.94421 25.7727 2.19228 26.2353 2.44034 26.4029C2.75544 26.6108 3.11077 26.5437 3.86166 26.1414C4.24381 25.9336 4.57233 25.7392 4.59244 25.7057C4.63267 25.6386 4.46506 25.2699 4.35779 25.2028C4.31756 25.1827 4.02927 25.3101 3.70076 25.4911C2.93646 25.9269 2.85601 25.947 2.6884 25.7794C2.3867 25.4777 2.49397 25.357 3.50633 24.8073C3.75439 24.6732 3.95553 24.5324 3.95553 24.4922C3.95553 24.3648 3.74769 24.0296 3.66724 24.0296C3.62701 24.0296 3.27168 24.2039 2.88953 24.4117Z" fill="white"/>
<path id="Vector_30" d="M30.4915 25.2096C30.277 25.5582 30.1027 25.8867 30.1027 25.9404C30.1027 26.0409 31.8324 27.1136 31.9866 27.1136C32.0737 27.1136 32.8515 25.8666 32.8515 25.7325C32.8515 25.6387 32.4626 25.4241 32.3889 25.4711C32.3486 25.4912 32.2145 25.6856 32.0805 25.9069C31.8659 26.2622 31.819 26.3024 31.705 26.2354C31.6313 26.1951 31.591 26.1348 31.6246 26.0879C31.6447 26.0409 31.7385 25.9002 31.819 25.7661C31.8994 25.632 31.9464 25.4979 31.9263 25.4577C31.8726 25.3839 31.5776 25.2163 31.5441 25.2498C31.5374 25.2632 31.4368 25.4107 31.3296 25.5918C31.1552 25.88 31.1217 25.9002 31.0078 25.8197C30.8938 25.7325 30.8938 25.7057 31.1284 25.3236C31.2692 25.1023 31.3765 24.8878 31.3765 24.8543C31.3765 24.7939 31.0212 24.566 30.9273 24.566C30.9005 24.5727 30.6994 24.861 30.4915 25.2096Z" fill="white"/>
<path id="Vector_31" d="M28.916 27.4154C28.6076 27.764 28.3595 28.0791 28.3595 28.1193C28.3595 28.2132 28.6277 28.4479 28.7349 28.4546C28.7752 28.4546 28.8757 28.3808 28.9629 28.287C29.05 28.1931 29.1439 28.1193 29.164 28.1193C29.1908 28.1193 29.4724 28.3473 29.7875 28.6222C30.1026 28.8971 30.4043 29.125 30.458 29.125C30.5451 29.125 30.8401 28.8032 30.8401 28.7026C30.8401 28.6892 30.5518 28.4277 30.1965 28.1193L29.5529 27.5696L29.7272 27.3886C29.8211 27.288 29.9015 27.174 29.9015 27.1405C29.9015 27.0533 29.6132 26.7785 29.5261 26.7785C29.4925 26.7785 29.2177 27.0668 28.916 27.4154Z" fill="white"/>
<path id="Vector_32" d="M4.46508 27.3081C3.91532 27.5562 3.45272 27.7841 3.43931 27.8244C3.4259 27.8646 3.47954 27.9786 3.55999 28.0791C3.68067 28.2333 3.74101 28.2601 3.92202 28.2266C4.11645 28.1864 4.16338 28.2132 4.32429 28.4278C4.48519 28.6356 4.4986 28.6892 4.42485 28.8233C4.3511 28.9574 4.36451 29.011 4.48519 29.1854C4.56564 29.2993 4.67291 29.3932 4.71984 29.3932C4.807 29.3932 6.0339 27.6098 6.0339 27.4891C6.0339 27.4087 5.5646 26.8455 5.51096 26.8522C5.48414 26.8522 5.01484 27.0601 4.46508 27.3081ZM5.09529 27.9182C4.98132 28.0657 4.85393 28.1864 4.82711 28.1864C4.76007 28.1864 4.59917 27.9249 4.63939 27.8847C4.69303 27.8311 5.2629 27.6031 5.28972 27.6232C5.30312 27.6366 5.21597 27.764 5.09529 27.9182Z" fill="white"/>
<path id="Vector_33" d="M6.92561 28.8568C6.83845 28.8903 6.71107 29.0177 6.63732 29.1383C6.44289 29.4467 6.49653 29.7685 6.79823 30.1708C7.0664 30.5194 7.09992 30.6669 6.9189 30.6669C6.7647 30.6669 6.46971 30.3585 6.37585 30.1105C6.30881 29.9362 6.28199 29.9227 6.08086 29.963C5.77246 30.03 5.73893 30.0837 5.8328 30.3719C5.94007 30.7005 6.44289 31.1765 6.77811 31.2837C7.12004 31.3843 7.44855 31.2435 7.61616 30.9284C7.75695 30.6468 7.70332 30.3988 7.40832 29.9898C7.14685 29.6211 7.11333 29.4601 7.29435 29.4601C7.44855 29.4601 7.6765 29.6948 7.77036 29.9496C7.8374 30.1239 7.86422 30.1373 8.06535 30.0971C8.17933 30.0702 8.30671 30.0233 8.34023 29.9965C8.4475 29.8892 8.23967 29.4668 7.93797 29.1987C7.5223 28.8098 7.26083 28.7227 6.92561 28.8568Z" fill="white"/>
<path id="Vector_34" d="M27.3672 28.9708L27.146 29.1585L27.4879 29.5742C27.6756 29.8088 27.7896 29.9965 27.7427 29.9965C27.6957 29.9965 27.4142 29.9027 27.1192 29.7954C26.5962 29.601 26.5761 29.5943 26.4219 29.715C26.08 29.9697 26.0867 29.9898 26.7906 30.8882C27.1594 31.3508 27.4879 31.733 27.5214 31.733C27.5616 31.7397 27.6756 31.6659 27.7829 31.5788L27.984 31.4246L27.622 30.9687C27.2197 30.4658 27.2063 30.4726 28.0377 30.7742L28.5539 30.9553L28.7953 30.7742C28.9562 30.6469 29.0165 30.5597 28.9763 30.5128C28.5673 29.9831 27.6153 28.7898 27.6019 28.7898C27.5885 28.7898 27.4879 28.8702 27.3672 28.9708Z" fill="white"/>
<path id="Vector_35" d="M24.6051 30.8413C24.29 31.0156 23.9682 31.1967 23.8877 31.2436L23.7335 31.3374L24.1827 32.1956C24.4241 32.6649 24.6654 33.1141 24.7191 33.1946L24.8062 33.3488L25.5437 32.98C25.9527 32.7789 26.2812 32.5778 26.2812 32.5375C26.2812 32.4504 26.0868 32.0749 26.0398 32.0749C26.0264 32.0749 25.8052 32.1755 25.5571 32.3029C25.1146 32.5241 25.0945 32.5308 25.0208 32.4034C24.947 32.2895 24.9738 32.2626 25.2755 32.1084C25.4632 32.0146 25.6107 31.9073 25.6107 31.8671C25.6107 31.8067 25.4968 31.552 25.4431 31.4849C25.4297 31.4715 25.2621 31.5453 25.0744 31.6391C24.7928 31.7799 24.7124 31.8 24.6654 31.7263C24.5716 31.5788 24.5917 31.552 25.0409 31.3039C25.2822 31.1698 25.4767 31.0357 25.4767 31.0156C25.4767 30.962 25.2219 30.5329 25.1951 30.5329C25.1817 30.5329 24.9202 30.6737 24.6051 30.8413Z" fill="white"/>
<path id="Vector_36" d="M10.3314 31.0224C10.2442 31.1363 9.45312 32.8929 9.45312 32.98C9.45312 33.0203 9.55369 33.1074 9.68107 33.1678C9.93584 33.2884 9.95595 33.275 10.1504 32.8996C10.2979 32.6113 10.4588 32.6716 10.4588 33.0136C10.4588 33.4024 10.5593 33.5901 10.8007 33.6773C11.1225 33.7913 11.1292 33.7846 11.1292 33.3622C11.1292 32.9934 11.1359 32.9733 11.3303 32.8996C11.4778 32.8459 11.5784 32.7253 11.6991 32.4638C11.793 32.2694 11.8667 32.0682 11.8667 32.0213C11.8667 31.8269 11.6455 31.5319 11.4041 31.4045C10.7337 31.0626 10.3984 30.9486 10.3314 31.0224ZM11.089 31.9409C11.1896 32.0347 11.1963 32.0816 11.1359 32.2023C11.0488 32.3632 10.9415 32.3766 10.6934 32.2627C10.5057 32.1755 10.4923 32.1487 10.6063 31.9073C10.6934 31.7196 10.8677 31.7263 11.089 31.9409Z" fill="white"/>
<path id="Vector_37" d="M22.4463 31.8201C22.339 31.8536 22.2585 31.9073 22.2585 31.9274C22.2585 32.0615 22.9893 33.9856 23.0497 34.0057C23.0832 34.0124 23.224 33.9789 23.3581 33.9253L23.5994 33.8247L23.291 32.9666C23.1234 32.4973 22.9491 32.028 22.9156 31.9207C22.8418 31.7263 22.748 31.7061 22.4463 31.8201Z" fill="white"/>
<path id="Vector_38" d="M12.7852 33.0939C12.6444 33.657 12.5371 34.1532 12.5371 34.1934C12.5371 34.2873 13.9651 34.656 14.1059 34.6024C14.24 34.5487 14.3205 34.1532 14.2132 34.0861C14.1663 34.0593 13.9517 33.9923 13.7305 33.952C13.3416 33.8649 13.1874 33.7442 13.3215 33.6101C13.3617 33.5699 13.5092 33.5766 13.7305 33.6235C13.9249 33.6705 14.0925 33.6906 14.1126 33.6705C14.1328 33.657 14.1596 33.5498 14.1864 33.4425C14.2266 33.2414 14.2199 33.2347 13.8512 33.1542C13.5562 33.0872 13.4757 33.0402 13.4757 32.9464C13.4757 32.7587 13.5428 32.7453 14.0322 32.8659C14.5283 32.9799 14.5752 32.9665 14.6423 32.638L14.6892 32.4301L13.9853 32.2491C13.5964 32.1553 13.221 32.0748 13.1539 32.0748C13.0533 32.0748 12.993 32.2491 12.7852 33.0939Z" fill="white"/>
<path id="Vector_39" d="M20.1332 32.5241C20.046 32.5375 19.979 32.5778 19.979 32.6113C19.979 32.6448 20.0729 33.1007 20.1801 33.6169C20.2941 34.1332 20.3813 34.5757 20.3813 34.6025C20.3813 34.6494 20.7835 34.5891 21.407 34.4483C21.8361 34.3477 21.8562 34.3343 21.8562 34.1533C21.8562 34.046 21.8294 33.9454 21.7959 33.9253C21.7691 33.9052 21.5679 33.9253 21.3668 33.9656C21.159 34.0125 20.9713 34.0259 20.9511 34.0058C20.9243 33.979 20.8506 33.6974 20.7768 33.3689C20.7098 33.0471 20.636 32.7118 20.6159 32.6247C20.5824 32.4772 20.4818 32.4571 20.1332 32.5241Z" fill="white"/>
<path id="Vector_40" d="M16.0636 32.6112C15.715 32.7185 15.5541 32.933 15.5541 33.2884C15.5541 33.6906 15.7284 33.8717 16.305 34.0527C16.8011 34.2069 16.8749 34.3745 16.4726 34.408C16.305 34.4214 16.1374 34.3812 15.9765 34.2873L15.7351 34.1465L15.5809 34.294C15.3798 34.4885 15.3798 34.5823 15.5876 34.7432C15.9631 35.0382 16.8481 35.0918 17.1632 34.8371C17.3375 34.6963 17.4246 34.3208 17.3509 34.046C17.2972 33.8247 17.1162 33.7107 16.5262 33.4962C16.3318 33.4292 16.191 33.3353 16.191 33.2817C16.191 33.1342 16.5397 33.1208 16.8414 33.2548L17.1028 33.3755L17.2838 33.1878L17.4649 33.0068L17.2838 32.8459C17.1833 32.7587 16.9486 32.6582 16.7609 32.6179C16.372 32.5375 16.3318 32.5308 16.0636 32.6112Z" fill="white"/>
<path id="Vector_41" d="M18.5912 32.5911C18.3298 32.6247 18.3298 32.5911 18.4504 33.9655L18.5242 34.8907H18.8125C18.9734 34.8907 19.1142 34.8639 19.1343 34.8371C19.1812 34.7634 19.0069 32.7185 18.9466 32.6247C18.9198 32.5777 18.8795 32.5509 18.8527 32.5576C18.8259 32.5576 18.7052 32.5777 18.5912 32.5911Z" fill="white"/>
</g>
</g>
</svg>
