<svg width="102" height="103" viewBox="0 0 102 103" fill="none" xmlns="http://www.w3.org/2000/svg">
<g id="icon-noticias">
<path id="Vector" d="M49.9407 13.7345C50.1564 14.9506 51.1176 17.481 51.8041 18.5795C53.6872 21.6787 56.4726 24.1895 59.9249 25.896C62.7887 27.3083 64.5933 27.7595 67.4768 27.7987C70.7526 27.838 71.6157 27.5633 76.7549 24.8564C78.3241 24.0326 78.4026 24.2091 75.6172 21.8945C69.1637 16.4806 61.1999 13.401 53.0007 13.0872L49.8033 12.9695L49.9407 13.7345Z" fill="#31608C"/>
<path id="Vector_2" d="M44.2327 13.5384C34.935 15.1861 26.1669 20.5999 20.4392 28.2303C11.9654 39.5288 10.3569 54.5738 16.2808 67.3041L17.1242 69.1088L17.7323 68.6772C19.7527 67.2649 21.8123 64.7149 26.1473 58.3399C31.9731 49.768 35.3666 46.3157 41.2316 43.0203C42.9969 42.0199 43.8012 41.4118 45.2135 39.9995C47.94 37.2926 49.1954 34.5661 49.6662 30.2899C50.0585 26.7199 49.5681 23.0322 47.8223 16.4218L46.9789 13.2245L46.3904 13.2441C46.0766 13.2441 45.0958 13.3815 44.2327 13.5384Z" fill="#31608C"/>
<path id="Vector_3" d="M78.7753 28.0146C76.6372 30.1527 75.4014 33.2715 74.656 38.4696C74.4795 39.6858 74.1264 43.4912 73.8518 46.9042C73.0476 57.1239 72.263 63.5185 71.4587 66.6765C69.8307 73.0908 66.241 77.8181 60.1407 81.6235C58.1007 82.8789 54.1972 84.8208 48.7441 87.2727L44.821 89.0381L45.7037 89.1754C46.1941 89.2539 47.9595 89.3715 49.6268 89.45C60.3564 89.9208 70.6349 85.8604 78.2653 78.1515C89.701 66.5981 92.6237 48.7677 85.4249 34.4092C83.7184 30.9962 80.8741 26.7592 80.3053 26.7592C80.1484 26.7592 79.4618 27.3281 78.7753 28.0146Z" fill="#31608C"/>
<path id="Vector_4" d="M59.2972 28.9168C57.9045 29.4072 56.2765 30.5253 55.2957 31.6238C54.8642 32.1338 53.8834 33.5461 53.1184 34.7818C52.3534 36.0176 51.2157 37.6849 50.588 38.5088C49.1168 40.4703 45.1742 44.2953 42.3888 46.4726C37.3476 50.4153 36.2492 51.3568 35.0134 52.7103C32.6595 55.2799 31.8161 57.7907 32.4242 60.4584C32.8949 62.5376 33.6403 64.2049 36.4061 69.2265C38.6226 73.3065 39.8388 75.7191 42.4868 81.2507C43.2518 82.8199 43.5068 83.1534 44.2718 83.6438C46.5472 85.0953 49.313 84.8011 53.648 82.6434C56.453 81.2507 59.003 79.3676 61.5138 76.8372C65.8095 72.5218 67.2807 69.4422 68.948 61.2038C69.8699 56.5745 70.1838 53.9461 70.4388 48.1791C70.7919 40.7841 70.3211 37.1357 68.5557 33.5264C67.5357 31.4276 66.1234 29.8976 64.5345 29.1326C63.1026 28.4657 60.788 28.3676 59.2972 28.9168Z" fill="#31608C"/>
<path id="Vector_5" d="M24.0484 69.4423C22.5576 69.7757 21.0276 70.3642 19.5761 71.188L18.6345 71.7177L19.4191 72.8554C21.3807 75.7388 24.8722 79.4657 27.5595 81.5057C30.7568 83.9577 34.8957 86.1742 38.603 87.4492L40.6038 88.1357V87.6454C40.6038 86.7038 39.7995 83.1534 39.1326 81.1527C37.5241 76.3469 34.7388 72.3846 31.7572 70.6388C29.5014 69.3246 26.5984 68.8734 24.0484 69.4423Z" fill="#31608C"/>
<g id="anime-letras" class="icon-girando">
<path id="Vector_6" d="M52.1181 0.121352C51.1177 0.395968 50.5488 1.25904 50.6861 2.31828C50.8038 3.33828 51.2354 3.71097 52.8634 4.2602C53.6873 4.55443 54.2365 4.82904 54.2365 5.00558C54.2365 5.41751 52.9027 5.45674 52.1769 5.08404C51.5688 4.7702 51.5296 4.7702 51.0784 5.20174C50.8234 5.43712 50.6077 5.75097 50.6077 5.88828C50.6077 6.53558 52.9615 7.30058 54.2365 7.0652C55.3154 6.84943 56.1 6.00597 56.1 5.0252C56.1 3.86789 55.5507 3.29904 53.9227 2.80866C52.8831 2.49481 52.5692 2.31828 52.6084 2.06328C52.7065 1.57289 53.8442 1.55328 54.6681 2.04366L55.3742 2.45558L55.9627 1.88674C56.6296 1.21981 56.5511 1.00404 55.5507 0.494045C54.6288 0.0232753 53.0792 -0.133648 52.1181 0.121352Z" fill="#31608C"/>
<path id="Vector_7" d="M45.6058 0.709747C45.4488 1.10205 46.0373 6.96706 46.2335 7.16321C46.3315 7.26129 46.7238 7.2809 47.1358 7.20244L47.8615 7.08475L47.8419 6.08436C47.8223 5.53513 47.7242 4.06398 47.5869 2.82821L47.3711 0.572439L46.5277 0.513593C45.9588 0.474362 45.6646 0.533209 45.6058 0.709747Z" fill="#31608C"/>
<path id="Vector_8" d="M59.9446 1.74945C59.8661 2.14175 59.8465 2.51445 59.9054 2.61252C59.9642 2.69099 60.533 2.88714 61.1607 3.02445C62.5927 3.31868 62.828 3.45599 62.6515 3.88752C62.5534 4.16214 62.3769 4.20137 61.965 4.12291C60.1211 3.7306 60.278 3.71099 60.1211 4.39752C59.9642 5.14291 60.1211 5.28022 61.3373 5.47637C61.9846 5.57445 62.1807 5.69214 62.1807 5.96675C62.1807 6.5356 61.9061 6.59445 60.5134 6.24137C59.7484 6.04522 59.1404 5.98637 59.0423 6.08445C58.9442 6.18252 58.8265 6.57483 58.8069 6.94752L58.748 7.61445L61.0038 8.14406C62.2396 8.43829 63.3184 8.61483 63.3969 8.55599C63.5342 8.41868 64.9269 2.69099 64.9269 2.29868C64.9269 2.14175 60.8469 1.06291 60.2584 1.06291C60.1604 1.06291 60.0034 1.37675 59.9446 1.74945Z" fill="#31608C"/>
<path id="Vector_9" d="M39.427 1.67107C38.5051 1.88683 37.7009 2.12222 37.6224 2.20068C37.5636 2.27914 37.5439 2.59299 37.6028 2.88722C37.7009 3.39722 37.7793 3.43645 38.3286 3.33837C38.662 3.25991 39.2505 3.16183 39.6428 3.10299L40.3489 2.9853L40.8393 5.20183L41.3297 7.43799L42.0555 7.41837C42.4674 7.39876 42.8793 7.30068 42.9774 7.2026C43.0951 7.08491 42.9186 5.96683 42.5066 4.18183C41.7613 0.925681 41.9574 1.0826 39.427 1.67107Z" fill="#31608C"/>
<path id="Vector_10" d="M33.1108 3.45608C32.7969 3.55416 32.5615 3.76993 32.5615 3.90724C32.5615 4.31916 34.5231 9.57608 34.7781 9.83108C34.9546 10.0076 35.1704 9.96839 35.7 9.73301C36.0727 9.53685 36.3669 9.30147 36.3669 9.20339C36.3473 9.0857 35.8569 7.71262 35.2881 6.12378C34.17 3.08339 34.17 3.06378 33.1108 3.45608Z" fill="#31608C"/>
<path id="Vector_11" d="M68.9088 3.71104C68.85 3.88758 68.85 4.39758 68.8892 4.86835C68.9873 5.67258 68.948 5.73143 68.3596 6.02566C67.6338 6.37873 66.8884 7.69297 66.8884 8.65412C66.8884 9.57604 67.5161 10.1645 69.3207 10.9491C70.223 11.3414 71.0665 11.6553 71.1646 11.6553C71.2823 11.6553 73.0673 7.84989 73.9107 5.75104C73.9892 5.5745 72.9104 4.98604 72.518 4.98604C72.3611 4.98604 72.0865 5.33912 71.8904 5.77066C71.6942 6.2022 71.4784 6.55527 71.4 6.55527C71.0469 6.55527 70.8115 5.98643 70.8115 5.14297C70.8115 4.26027 70.7723 4.18181 70.0269 3.80912C69.105 3.33835 69.0657 3.33835 68.9088 3.71104ZM70.7134 8.1245C70.89 8.39912 70.38 9.30143 70.0465 9.30143C69.5954 9.30143 68.85 8.7522 68.85 8.41873C68.85 8.28143 68.9873 8.02643 69.1442 7.84989C69.3796 7.6145 69.5757 7.59489 70.0269 7.77143C70.3604 7.8695 70.6546 8.04604 70.7134 8.1245Z" fill="#31608C"/>
<path id="Vector_12" d="M26.7358 6.31985C24.5977 7.47715 24.4408 7.67331 25.1077 8.51677L25.4804 9.00715L26.6769 8.35985C27.8539 7.71254 28.4423 7.65369 28.4423 8.18331C28.4423 8.34023 28.2069 8.556 27.9127 8.69331C27.5989 8.83062 27.1673 9.066 26.9123 9.22292C26.5004 9.49754 26.5004 9.53677 26.775 10.086C26.9515 10.4195 27.1281 10.6745 27.1869 10.6745C27.2262 10.6745 27.6969 10.4587 28.2265 10.2037C28.9327 9.831 29.2269 9.77215 29.4035 9.94869C29.7762 10.3214 29.6781 10.4195 28.4227 11.0864C27.7558 11.4395 27.1869 11.8514 27.1281 11.9887C27.0692 12.126 27.2262 12.4987 27.4419 12.8125L27.8735 13.401L29.8742 12.3418C31.2669 11.5964 31.875 11.1648 31.875 10.9295C31.875 10.4979 29.2073 5.41754 28.9327 5.31946C28.8346 5.26062 27.8342 5.71177 26.7358 6.31985Z" fill="#31608C"/>
<path id="Vector_13" d="M20.3215 10.3017C20.0469 10.5174 19.8115 10.7724 19.8115 10.8705C19.8115 10.949 20.2626 11.5767 20.8119 12.224C21.3611 12.8909 21.7142 13.4205 21.6161 13.4205C21.4984 13.4205 20.6942 13.1459 19.8115 12.832C18.9288 12.4986 18.1638 12.2436 18.0853 12.2436C18.0069 12.2436 17.6538 12.4986 17.2811 12.7928L16.6338 13.342L18.203 15.3036C19.0661 16.3628 20.0469 17.5397 20.3607 17.9124L20.9099 18.5793L21.5376 18.1282C21.8907 17.8732 22.1653 17.5986 22.1653 17.5201C22.1653 17.4417 21.7142 16.8336 21.1649 16.1863C20.6157 15.5193 20.2626 14.9897 20.3803 14.9897C20.4784 14.9897 21.3219 15.2643 22.2438 15.5978L23.9307 16.2059L24.4996 15.7351C24.833 15.4997 25.088 15.1467 25.088 14.9897C25.1076 14.6759 21.263 9.88973 21.008 9.88973C20.9099 9.88973 20.6157 10.0663 20.3215 10.3017Z" fill="#31608C"/>
<path id="Vector_14" d="M80.5211 10.5567C79.0499 11.1844 78.8538 12.6556 80.0307 14.2248C80.8153 15.284 81.0311 15.9706 80.5603 15.9706C80.2072 15.9706 79.2461 15.029 79.0499 14.4798C78.9126 14.1463 78.7164 14.009 78.3241 14.009C77.1668 14.009 77.0295 14.5779 77.873 15.9313C78.383 16.7748 79.9326 17.736 80.7564 17.736C81.6784 17.736 82.5807 16.8729 82.718 15.8725C82.7964 15.2056 82.718 14.9506 82.1099 14.1071C80.9918 12.5379 80.9526 12.4594 81.3057 12.3221C81.7568 12.1456 82.5218 12.734 82.973 13.6363C83.3653 14.3817 83.4241 14.421 84.0126 14.3033C84.3657 14.2248 84.7188 14.0875 84.7972 14.009C85.0326 13.7933 84.4245 12.4398 83.7968 11.7925C82.6591 10.6156 81.4626 10.1644 80.5211 10.5567Z" fill="#31608C"/>
<path id="Vector_15" d="M85.9154 18.6579C84.9346 20.1486 84.15 21.4629 84.15 21.5805C84.15 21.6982 84.4835 22.169 84.8954 22.6398L85.6212 23.4636L88.6616 22.0905C90.3289 21.3452 91.7216 20.6194 91.7608 20.5017C91.8 20.3644 91.6039 20.0113 91.3096 19.6975C90.8389 19.2071 90.7212 19.1679 90.2896 19.364C89.8385 19.5602 89.7404 19.5209 89.1519 18.8148C88.5439 18.1086 88.5243 18.0302 88.7989 17.6182C89.0539 17.2063 89.0343 17.1082 88.6419 16.5786C88.3869 16.2452 88.0731 15.9705 87.9358 15.9705C87.7789 15.9705 86.8766 17.1867 85.9154 18.6579ZM88.0731 19.9132C88.2104 20.129 88.2693 20.3448 88.23 20.384C88.0339 20.5605 86.4646 21.2863 86.4058 21.2275C86.2685 21.0902 87.3866 19.5013 87.6219 19.5013C87.7593 19.5013 87.9554 19.6779 88.0731 19.9132Z" fill="#31608C"/>
<path id="Vector_16" d="M12.0831 18.1282C11.8085 18.4813 11.5731 18.8147 11.5731 18.9128C11.5731 18.9913 12.4166 19.7759 13.4366 20.6389L15.3 22.2082L14.79 22.8163C14.5154 23.1497 14.3193 23.5616 14.3781 23.7186C14.4958 23.9932 15.457 24.7189 15.5747 24.5816C15.5943 24.5424 16.3397 23.6597 17.2224 22.6201C18.105 21.5609 18.8308 20.6193 18.8308 20.5213C18.8308 20.4036 18.5562 20.1289 18.2227 19.8739L17.6147 19.462L17.0654 20.1093C16.5554 20.737 16.4966 20.7566 16.1631 20.4624C15.9474 20.3055 15.2216 19.6778 14.5154 19.0893C12.4754 17.3632 12.6716 17.4416 12.0831 18.1282Z" fill="#31608C"/>
<path id="Vector_17" d="M6.82617 25.5626C6.19848 26.6414 5.68848 27.583 5.68848 27.6811C5.68848 27.9361 6.84578 28.5638 7.06155 28.4264C7.15963 28.3676 7.49309 27.8968 7.78732 27.3868C8.57194 25.9941 8.61117 25.9549 9.04271 26.1707C9.39578 26.3668 9.37617 26.4257 8.82694 27.2888C8.23848 28.2695 8.27771 28.5049 9.06232 28.9364C9.35655 29.0934 9.51348 28.9757 10.0431 28.1322C10.6904 27.073 10.8081 26.9945 11.1612 27.4261C11.3377 27.6418 11.2396 27.9557 10.6708 28.8776C10.2785 29.5445 10.0235 30.1722 10.1019 30.2899C10.1608 30.388 10.4746 30.6234 10.7885 30.7803C11.4358 31.1138 11.3377 31.2118 12.7304 28.8384C13.2992 27.8772 13.7112 26.9945 13.6719 26.8768C13.5542 26.5826 8.55232 23.6207 8.19925 23.6207C8.06194 23.6207 7.43425 24.5034 6.82617 25.5626Z" fill="#31608C"/>
<path id="Vector_18" d="M92.3885 24.5426C91.957 24.6996 88.2693 26.7788 88.2693 26.8769C88.2693 27.1711 88.9754 28.3284 89.152 28.3284C89.2893 28.3284 90.1916 27.8772 91.1724 27.328C93.2124 26.2099 93.9381 26.1315 94.2324 26.9946C94.4874 27.7007 94.2912 27.9165 92.0747 29.1522C91.0547 29.7211 90.2308 30.2703 90.2308 30.388C90.2308 30.4861 90.4074 30.8784 90.6231 31.2315L91.0154 31.8788L91.6627 31.5453C93.6243 30.5449 95.3701 29.4072 95.7231 28.9169C96.4881 27.838 96.1154 26.1315 94.8601 25.033C94.1539 24.4249 93.232 24.2288 92.3885 24.5426Z" fill="#31608C"/>
<path id="Vector_19" d="M3.92307 32.2121C3.02076 33.1144 2.4323 34.7817 2.62845 35.8606C2.80499 36.7432 3.66807 37.3513 4.7273 37.3513C5.47268 37.3513 5.82576 37.0375 7.21845 35.1936C7.47345 34.8798 7.76768 34.6444 7.86576 34.7229C8.23845 34.9386 8.02268 35.8017 7.41461 36.4686C6.80653 37.1748 6.80653 37.1748 7.12038 37.8613C7.51268 38.6459 7.61076 38.6656 8.33653 38.0967C9.0623 37.5279 9.80768 35.8802 9.80768 34.8406C9.80768 33.6832 9.00345 32.8398 7.90499 32.8398C6.96345 32.8398 6.45345 33.1929 5.64922 34.3698C4.94307 35.429 4.68807 35.6448 4.45268 35.4094C4.13884 35.0956 4.53114 34.0363 5.13922 33.4086C5.7473 32.8202 5.7473 32.8006 5.43345 32.1336C5.25691 31.7609 5.00191 31.4667 4.88422 31.4667C4.76653 31.4667 4.33499 31.8002 3.92307 32.2121Z" fill="#31608C"/>
<path id="Vector_20" d="M96.6254 33.1537C95.8801 33.4087 95.2328 33.6637 95.1739 33.7029C95.0758 33.801 95.8997 36.3902 96.1154 36.6256C96.1939 36.7041 96.4881 36.6844 96.7824 36.5667C97.2924 36.3902 97.312 36.3117 97.1943 35.586C97.0962 34.9583 97.1158 34.8014 97.3708 34.8014C97.7631 34.8014 98.077 35.4094 98.077 36.1548C98.077 36.861 97.6258 37.2141 96.2724 37.5671C95.4289 37.8025 95.3112 37.7829 94.9189 37.4298C94.5658 37.116 94.5266 36.9002 94.6051 36.0567C94.7031 35.1152 94.6835 35.0367 94.1147 34.7033C93.5654 34.3894 93.5066 34.3894 93.2124 34.6837C92.9574 34.9191 92.8789 35.3702 92.8789 36.351C92.8789 37.4691 92.9574 37.8025 93.4085 38.4891C94.2324 39.7248 95.0562 39.9014 97.1354 39.2541C99.7051 38.4498 100.352 37.4298 99.6658 35.2133C99.3128 34.0952 98.4301 32.6241 98.1162 32.6633C98.0378 32.6633 97.3708 32.8791 96.6254 33.1537Z" fill="#31608C"/>
<path id="Vector_21" d="M97.7826 42.9417C96.2722 43.6282 95.0169 44.2952 94.9776 44.4129C94.9384 44.5305 94.958 45.0994 95.0365 45.6682L95.1542 46.7275L97.9395 47.1394C99.4695 47.3748 101.019 47.6298 101.372 47.6886C102 47.7867 102 47.7867 102 47.0217C102 46.1979 101.725 45.7859 101.196 45.7859C100.843 45.7859 100.627 45.2563 100.627 44.2952C100.627 43.8244 100.745 43.6282 101.137 43.4517C101.47 43.2948 101.608 43.1182 101.529 42.9221C101.47 42.7455 101.411 42.3925 101.411 42.1375C101.411 41.4313 100.882 41.549 97.7826 42.9417ZM99.1361 44.9229C99.2145 45.2171 99.2342 45.4721 99.1949 45.5113C99.0772 45.629 97.0961 45.3348 97.0961 45.1975C97.0961 45.0602 98.3907 44.4717 98.783 44.4325C98.9203 44.4129 99.0772 44.6482 99.1361 44.9229Z" fill="#31608C"/>
<path id="Vector_22" d="M2.64806 44.4717C2.58921 44.5894 2.53037 45.4525 2.49114 46.3744L2.4519 48.0417L3.05998 48.1006L3.66806 48.1594L3.88383 46.3352C3.9819 45.3348 4.04075 44.4521 3.9819 44.354C3.8446 44.1187 2.74614 44.1971 2.64806 44.4717Z" fill="#31608C"/>
<path id="Vector_23" d="M92.5454 44.5698C91.9374 45.276 91.9766 45.374 92.9966 45.9036C93.8008 46.296 94.0362 46.3548 94.1735 46.139C94.4677 45.6879 94.3697 45.4721 93.585 44.8444C92.8789 44.2756 92.8004 44.256 92.5454 44.5698Z" fill="#31608C"/>
<path id="Vector_24" d="M0 54.9659C0 55.7701 0.274615 56.182 0.804231 56.182C1.15731 56.182 1.37308 56.7117 1.37308 57.6728C1.37308 58.1436 1.25538 58.3397 0.863077 58.5163C0.529615 58.6732 0.392308 58.8497 0.470769 59.0459C0.529615 59.2224 0.588462 59.5755 0.588462 59.8305C0.588462 60.1443 0.706154 60.3013 0.941539 60.3013C1.11808 60.3013 2.56962 59.752 4.15846 59.0851L7.06154 57.8493L7.04192 57.0647C7.00269 55.2993 7.12039 55.3778 3.62885 54.7697C1.90269 54.4755 0.372692 54.2401 0.255 54.2401C0.0980769 54.2205 0 54.4951 0 54.9659ZM4.76654 56.7705C4.90385 56.9078 3.57 57.5551 3.15808 57.5551C2.98154 57.5551 2.74615 56.6332 2.88346 56.4959C3.00115 56.3782 4.59 56.594 4.76654 56.7705Z" fill="#31608C"/>
<path id="Vector_25" d="M98.3711 55.2407C98.3319 55.378 98.2142 56.1822 98.1161 57.0257C97.9396 58.693 98.0769 59.0068 98.9007 58.8891C99.3126 58.8303 99.3715 58.6734 99.5676 57.0649C99.6853 56.0841 99.7442 55.2407 99.7049 55.1426C99.5676 54.9072 98.4692 54.9857 98.3711 55.2407Z" fill="#31608C"/>
<path id="Vector_26" d="M7.70893 56.1038C7.59124 56.4372 8.72893 57.7515 9.16047 57.7515C9.41547 57.7515 9.80777 57.163 9.80777 56.7903C9.80777 56.5745 8.41508 55.7899 8.04239 55.7899C7.9247 55.7899 7.78739 55.9272 7.70893 56.1038Z" fill="#31608C"/>
<path id="Vector_27" d="M4.41344 62.8513C3.68767 63.0867 3.00113 63.4594 2.64806 63.8321C2.13806 64.3813 2.0596 64.5775 2.07921 65.5583C2.07921 66.3429 2.23613 66.9902 2.60883 67.7748C3.39344 69.4029 3.45229 69.4225 5.13921 68.9125C5.92383 68.6771 6.62998 68.4221 6.72806 68.3633C6.88498 68.2063 6.1396 65.8133 5.80613 65.4602C5.6296 65.264 5.49229 65.264 5.09998 65.4798C4.82536 65.6171 4.62921 65.8133 4.64883 65.9113C4.66844 66.0094 4.7469 66.3429 4.80575 66.6371C4.92344 67.0883 4.88421 67.1667 4.55075 67.1667C3.96229 67.1667 3.60921 65.8917 4.02113 65.2837C4.39383 64.6952 6.31613 64.1263 6.86536 64.4206C7.33613 64.6756 7.53229 65.3817 7.37536 66.2644C7.25767 66.8333 7.31652 66.9902 7.68921 67.2452C8.3169 67.6963 8.5719 67.6375 8.92498 66.9706C9.53306 65.774 9.06229 63.7537 7.94421 62.8906C7.25767 62.3413 6.04152 62.3413 4.41344 62.8513Z" fill="#31608C"/>
<path id="Vector_28" d="M93.3103 65.2836C92.6042 65.9701 91.9961 67.4217 91.9961 68.3632C91.9961 69.1282 92.8592 70.0698 93.7026 70.2267C94.6834 70.4032 95.3699 70.0109 96.2526 68.7555C97.1157 67.5198 97.4884 67.304 97.4884 68.0494C97.4884 68.7163 97.0176 69.6186 96.4684 69.9913C96.0369 70.3051 96.0369 70.3051 96.3899 70.9917C96.6057 71.3644 96.8215 71.6782 96.8803 71.6782C96.9392 71.6782 97.2726 71.5017 97.6061 71.3055C98.4299 70.7955 99.293 69.0498 99.3126 67.8336C99.3126 67.0294 99.2342 66.8332 98.6849 66.3428C98.2338 65.9505 97.8611 65.7936 97.3119 65.7936C96.4096 65.7936 95.7622 66.2448 94.9972 67.4609C94.6834 67.9513 94.2911 68.3436 94.1146 68.3436C93.4672 68.3436 93.7615 67.3432 94.6834 66.3625C95.1542 65.8525 95.1542 65.8525 94.8011 65.2444C94.6049 64.8913 94.3499 64.6167 94.2126 64.6167C94.0753 64.6167 93.6634 64.9109 93.3103 65.2836Z" fill="#31608C"/>
<path id="Vector_29" d="M8.45425 71.4232C6.21809 72.659 5.68848 73.2475 5.68848 74.5029C5.68848 75.4052 6.41425 76.7586 7.14002 77.249C8.06194 77.8571 9.10155 77.6609 11.2985 76.484C12.4166 75.8759 13.3777 75.3071 13.4366 75.209C13.5542 75.0129 13.0639 73.934 12.75 73.7378C12.6323 73.679 11.7889 74.0517 10.8277 74.5813C8.59155 75.8563 8.35617 75.9152 7.86578 75.4248C6.98309 74.5421 7.29694 74.189 10.2589 72.5805C10.9846 72.1882 11.5731 71.7763 11.5731 71.6586C11.5731 71.2859 10.965 70.3052 10.7296 70.3052C10.6119 70.3052 9.57232 70.8152 8.45425 71.4232Z" fill="#31608C"/>
<path id="Vector_30" d="M89.2108 73.7576C88.5831 74.7776 88.0731 75.7388 88.0731 75.8957C88.0731 76.1899 93.1339 79.3284 93.585 79.3284C93.84 79.3284 96.1154 75.6799 96.1154 75.2876C96.1154 75.013 94.9777 74.3853 94.762 74.5226C94.6443 74.5814 94.252 75.1503 93.8597 75.7976C93.232 76.8372 93.0947 76.9549 92.7612 76.7588C92.5454 76.6411 92.4277 76.4645 92.5258 76.3272C92.5847 76.1899 92.8593 75.778 93.0947 75.3857C93.33 74.9934 93.4674 74.6011 93.4085 74.4834C93.2516 74.2676 92.3885 73.7772 92.2904 73.8753C92.2708 73.9145 91.9766 74.3461 91.6627 74.8757C91.1527 75.7191 91.0547 75.778 90.7212 75.5426C90.3877 75.2876 90.3877 75.2091 91.0743 74.0911C91.4862 73.4438 91.8 72.8161 91.8 72.718C91.8 72.5414 90.7604 71.8745 90.4858 71.8745C90.4074 71.8941 89.8189 72.7376 89.2108 73.7576Z" fill="#31608C"/>
<path id="Vector_31" d="M84.6011 80.211C83.6988 81.231 82.973 82.1529 82.973 82.2706C82.973 82.5452 83.7576 83.2317 84.0715 83.2514C84.1892 83.2514 84.4834 83.0356 84.7384 82.761C84.9934 82.4864 85.268 82.2706 85.3269 82.2706C85.4053 82.2706 86.2292 82.9375 87.1511 83.7417C88.073 84.546 88.9557 85.2129 89.1126 85.2129C89.3676 85.2129 90.2307 84.2714 90.2307 83.9771C90.2307 83.9379 89.3873 83.1729 88.3476 82.2706L86.4646 80.6621L86.9746 80.1325C87.2492 79.8383 87.4846 79.5048 87.4846 79.4067C87.4846 79.1517 86.6411 78.3475 86.3861 78.3475C86.288 78.3475 85.4838 79.191 84.6011 80.211Z" fill="#31608C"/>
<path id="Vector_32" d="M13.0638 79.8972C11.4553 80.6229 10.1019 81.2899 10.0626 81.4076C10.0234 81.5253 10.1803 81.8587 10.4157 82.1529C10.7688 82.6041 10.9453 82.6826 11.475 82.5845C12.0438 82.4668 12.1811 82.5453 12.6519 83.1729C13.1226 83.781 13.1619 83.9379 12.9461 84.3303C12.7303 84.7226 12.7696 84.8795 13.1226 85.3895C13.358 85.7229 13.6719 85.9976 13.8092 85.9976C14.0642 85.9976 17.6538 80.7799 17.6538 80.4268C17.6538 80.1914 16.2807 78.5437 16.1238 78.5633C16.0453 78.5633 14.6723 79.1714 13.0638 79.8972ZM14.9076 81.6822C14.5742 82.1137 14.2015 82.4668 14.123 82.4668C13.9269 82.4668 13.4561 81.7018 13.5738 81.5841C13.7307 81.4272 15.398 80.7603 15.4765 80.8191C15.5157 80.8583 15.2607 81.231 14.9076 81.6822Z" fill="#31608C"/>
<path id="Vector_33" d="M20.2627 84.4282C20.0077 84.5263 19.635 84.899 19.4192 85.2521C18.8504 86.1544 19.0073 87.0959 19.89 88.2728C20.6746 89.2928 20.7727 89.7244 20.2431 89.7244C19.7919 89.7244 18.9289 88.8221 18.6542 88.0963C18.4581 87.5863 18.3796 87.5471 17.7912 87.6648C16.8889 87.8609 16.7908 88.0178 17.0654 88.8613C17.3792 89.8225 18.8504 91.2152 19.8312 91.529C20.8315 91.8232 21.7927 91.4113 22.2831 90.4894C22.695 89.6655 22.5381 88.9398 21.675 87.7432C20.91 86.6644 20.8119 86.1936 21.3415 86.1936C21.7927 86.1936 22.4596 86.8802 22.7342 87.6255C22.9304 88.1355 23.0089 88.1748 23.5973 88.0571C23.9308 87.9786 24.3035 87.8413 24.4015 87.7628C24.7154 87.449 24.1073 86.2132 23.2246 85.4286C22.0085 84.2909 21.2435 84.0359 20.2627 84.4282Z" fill="#31608C"/>
<path id="Vector_34" d="M80.0699 84.7617L79.4226 85.3109L80.423 86.5271C80.9722 87.2136 81.3057 87.7629 81.1684 87.7629C81.0311 87.7629 80.2072 87.4882 79.3441 87.1744C77.8141 86.6056 77.7553 86.5859 77.3041 86.939C76.3038 87.6844 76.3234 87.7432 78.383 90.3717C79.4618 91.7252 80.423 92.8432 80.5211 92.8432C80.6388 92.8629 80.9722 92.6471 81.2861 92.3921L81.8745 91.9409L80.8153 90.6071C79.6384 89.1359 79.5991 89.1555 82.0314 90.0382L83.5418 90.5679L84.248 90.0382C84.7188 89.6655 84.8953 89.4105 84.7776 89.2732C83.5811 87.7236 80.7957 84.2321 80.7564 84.2321C80.7172 84.2321 80.423 84.4675 80.0699 84.7617Z" fill="#31608C"/>
<path id="Vector_35" d="M71.9885 90.2344C71.0666 90.7444 70.125 91.274 69.8896 91.4113L69.4385 91.6859L70.7527 94.1967C71.4589 95.5698 72.165 96.884 72.3219 97.1194L72.5769 97.5706L74.7346 96.4917C75.9312 95.9032 76.8923 95.3148 76.8923 95.1971C76.8923 94.9421 76.3235 93.8436 76.1862 93.8436C76.1469 93.8436 75.4996 94.1379 74.7739 94.5106C73.4792 95.1579 73.4204 95.1775 73.2046 94.8048C72.9889 94.4713 73.0673 94.3929 73.95 93.9417C74.4992 93.6671 74.9308 93.3532 74.9308 93.2356C74.9308 93.059 74.5973 92.3136 74.4404 92.1175C74.4012 92.0782 73.9108 92.294 73.3616 92.5686C72.5377 92.9806 72.3023 93.0394 72.165 92.8236C71.8904 92.3921 71.9492 92.3136 73.2635 91.5879C73.9696 91.1956 74.5385 90.8032 74.5385 90.7444C74.5385 90.5875 73.7931 89.3321 73.7146 89.3321C73.6754 89.3321 72.9104 89.744 71.9885 90.2344Z" fill="#31608C"/>
<path id="Vector_36" d="M30.2273 90.7641C29.9723 91.0975 27.6577 96.2368 27.6577 96.4918C27.6577 96.6095 27.9519 96.8645 28.3246 97.041C29.07 97.3941 29.1289 97.3548 29.6977 96.2564C30.1293 95.4129 30.6 95.5895 30.6 96.5898C30.6 97.7275 30.8943 98.2768 31.6004 98.5318C32.5419 98.8652 32.5616 98.8456 32.5616 97.6098C32.5616 96.531 32.5812 96.4722 33.15 96.2564C33.5816 96.0995 33.8758 95.7464 34.2289 94.9814C34.5035 94.4125 34.7193 93.8241 34.7193 93.6868C34.7193 93.1179 34.0719 92.2548 33.3658 91.8822C31.4043 90.8818 30.4235 90.5483 30.2273 90.7641ZM32.4439 93.4514C32.7381 93.726 32.7577 93.8633 32.5812 94.2164C32.3262 94.6872 32.0123 94.7264 31.2866 94.3929C30.7373 94.1379 30.6981 94.0595 31.0316 93.3533C31.2866 92.8041 31.7966 92.8237 32.4439 93.4514Z" fill="#31608C"/>
<path id="Vector_37" d="M65.6723 93.0983C65.3584 93.1963 65.123 93.3533 65.123 93.4121C65.123 93.8044 67.2611 99.434 67.4377 99.4929C67.5357 99.5125 67.9477 99.4144 68.34 99.2575L69.0461 98.9633L68.1438 96.4525C67.6534 95.0794 67.1434 93.7063 67.0454 93.3925C66.8296 92.8236 66.555 92.7648 65.6723 93.0983Z" fill="#31608C"/>
<path id="Vector_38" d="M37.4064 96.8252C36.9945 98.4729 36.6807 99.9244 36.6807 100.042C36.6807 100.317 40.8587 101.396 41.2707 101.239C41.663 101.082 41.8984 99.9244 41.5845 99.7283C41.4472 99.6498 40.8195 99.4536 40.1722 99.3359C39.0345 99.0809 38.5834 98.7279 38.9757 98.3356C39.0934 98.2179 39.5249 98.2375 40.1722 98.3748C40.741 98.5121 41.2314 98.5709 41.2903 98.5121C41.3491 98.4729 41.4276 98.159 41.506 97.8452C41.6237 97.2567 41.6041 97.2371 40.5253 97.0017C39.6622 96.8056 39.4268 96.6683 39.4268 96.3936C39.4268 95.8444 39.623 95.8052 41.0549 96.1583C42.5064 96.4917 42.6437 96.4525 42.8399 95.4913L42.9772 94.8833L40.9176 94.3536C39.7799 94.079 38.6814 93.8436 38.4853 93.8436C38.191 93.8436 38.0145 94.3536 37.4064 96.8252Z" fill="#31608C"/>
<path id="Vector_39" d="M58.905 95.1579C58.65 95.1971 58.4539 95.3148 58.4539 95.4129C58.4539 95.5109 58.7285 96.8448 59.0423 98.3552C59.3758 99.8656 59.6308 101.16 59.6308 101.239C59.6308 101.376 60.8077 101.199 62.6319 100.787C63.8873 100.493 63.9462 100.454 63.9462 99.9244C63.9462 99.6106 63.8677 99.3163 63.7696 99.2575C63.6912 99.1986 63.1027 99.2575 62.5142 99.3752C61.9062 99.5125 61.3569 99.5517 61.2981 99.4929C61.2196 99.4144 61.0039 98.5906 60.7881 97.6294C60.5919 96.6879 60.3762 95.7071 60.3173 95.4521C60.2192 95.0206 59.925 94.9617 58.905 95.1579Z" fill="#31608C"/>
<path id="Vector_40" d="M46.9984 95.4129C45.9784 95.7267 45.5077 96.3544 45.5077 97.394C45.5077 98.571 46.0177 99.1006 47.7046 99.6302C49.1561 100.081 49.3719 100.572 48.195 100.67C47.7046 100.709 47.2142 100.591 46.7434 100.317L46.0373 99.9048L45.5861 100.336C44.9977 100.905 44.9977 101.18 45.6058 101.651C46.7042 102.514 49.2934 102.671 50.2154 101.925C50.7254 101.513 50.9804 100.415 50.7646 99.6106C50.6077 98.9633 50.0781 98.6298 48.3519 98.0021C47.7831 97.806 47.3711 97.5313 47.3711 97.3744C47.3711 96.9429 48.3911 96.9037 49.2738 97.296L50.0388 97.649L50.5684 97.0998L51.0981 96.5702L50.5684 96.0994C50.2742 95.8444 49.5877 95.5502 49.0384 95.4325C47.9008 95.1971 47.7831 95.1775 46.9984 95.4129Z" fill="#31608C"/>
<path id="Vector_41" d="M54.3935 95.3541C53.6285 95.4522 53.6285 95.3541 53.9815 99.3752L54.1973 102.082H55.0408C55.5115 102.082 55.9235 102.004 55.9823 101.925C56.1196 101.709 55.6096 95.7268 55.4331 95.4522C55.3546 95.3148 55.2369 95.2364 55.1585 95.256C55.08 95.256 54.7269 95.3148 54.3935 95.3541Z" fill="#31608C"/>
</g>
</g>
</svg>
