<svg width="200" height="73" viewBox="0 0 200 73" fill="none" xmlns="http://www.w3.org/2000/svg">
<path d="M35.3471 1.57125C36.7854 6.74924 40.9455 11.0864 46.3227 13.0336C51.1024 14.7818 54.8641 14.4498 59.2234 11.9272C60.2634 11.3298 61.2592 10.843 61.4141 10.843C61.9452 10.843 61.5026 10.2897 59.7766 8.78503C53.4479 3.31937 44.7294 0.000149393 36.6084 0.000149393H34.9045L35.3471 1.57125Z" fill="#ECECEC"/>
<path d="M29.129 0.664033C14.5687 3.60708 3.50458 14.7818 0.539406 29.4749C-0.168695 33.0597 -0.190824 39.499 0.539406 43.0395C1.24751 46.6242 3.57096 53.1078 4.1463 53.1078C4.45609 53.1078 7.19998 50.4524 8.30639 49.0362C8.90385 48.306 10.6962 45.7391 12.3116 43.3714C18.0207 34.9406 20.9858 31.909 26.8719 28.4349C28.2439 27.6383 29.8814 26.4655 30.5452 25.8238C33.5325 22.9028 34.8823 19.2959 34.8823 14.2729C34.8823 11.1528 34.5947 9.22763 33.3776 4.42582C32.1606 -0.331734 32.5146 -0.02194 29.129 0.664033Z" fill="#ECECEC"/>
<path d="M62.5647 14.0737C61.7681 14.7818 61.1706 15.6227 60.551 16.884C58.9799 20.0926 58.4267 23.2126 57.6743 32.8605C56.3909 49.5009 55.2845 54.2806 51.5891 59.0824C48.4912 63.1097 44.3974 65.7651 34.5725 70.1465C29.7486 72.2929 29.7707 72.2265 34.4398 72.4921C48.469 73.2887 62.1221 65.3004 68.5171 52.5546C73.5624 42.4642 73.673 30.8469 68.8712 20.6679C67.5214 17.8134 64.4013 13.0558 63.8702 13.0558C63.7817 13.0558 63.1843 13.5205 62.5647 14.0737Z" fill="#ECECEC"/>
<path d="M44.7294 14.9146C42.2732 15.5342 40.6136 16.8619 38.7327 19.7385C36.1437 23.7216 35.7454 24.2748 34.2407 25.9344C32.2049 28.2136 30.0585 30.1388 26.2303 33.1039C20.7646 37.3525 18.7067 39.8973 18.3748 42.7518C18.1092 45.0753 19.0165 47.3766 23.5749 55.7632C24.8141 58.0203 26.3631 61.0961 27.049 62.6229C27.735 64.1498 28.5316 65.7209 28.8414 66.1192C31.5189 69.6597 39.4629 67.1149 45.9465 60.6314C50.3279 56.25 51.7883 52.9972 53.4922 43.5927C54.6871 36.9542 54.9084 26.7532 53.9347 22.8143C52.4743 17.0168 48.8231 13.8746 44.7294 14.9146Z" fill="#ECECEC"/>
<path d="M88.0861 8.85619L87.2009 11.6724L87.7763 12.7005L88.3295 13.6839L89.458 11.8065C90.9848 9.1691 91.0955 8.63268 90.3653 7.20225C89.4359 5.50361 89.0818 5.77182 88.0861 8.85619Z" fill="#ECECEC"/>
<path d="M98.8182 14.8015C97.5127 15.4721 96.4284 17.6624 96.0743 20.2551C95.676 23.1606 95.7867 31.0727 96.2514 33.129C97.2471 37.6438 99.7476 39.1636 103.443 37.5991C104.262 37.2415 105.103 36.705 105.258 36.4368C105.523 36.0345 105.567 34.7382 105.523 30.4916L105.457 25.0828L103.045 24.9487C100.389 24.8146 100.035 25.0828 100.035 27.1837C100.035 29.5529 100.367 30.2234 101.606 30.2234C102.646 30.2234 102.713 30.3128 102.646 31.2068C102.58 32.1008 102.425 32.2349 101.319 32.369C100.19 32.5032 99.9689 32.369 99.4821 31.3856C98.9731 30.3575 98.9289 29.9552 98.9289 26.0662C98.9289 22.2666 98.9731 21.7749 99.4378 20.9256C100.168 19.5399 101.562 19.5846 102.425 21.0597C103.288 22.5348 103.532 22.4901 104.527 20.6127C105.302 19.1822 105.346 18.9587 105.058 18.1541C104.549 16.679 103.598 15.3827 102.536 14.7568C101.297 13.9969 100.279 13.9969 98.8182 14.8015Z" fill="#ECECEC"/>
<path d="M135.484 14.7568C134.312 15.5167 133.714 16.5896 133.316 18.467C132.674 21.5067 133.139 25.3957 134.356 27.1837C134.644 27.6307 135.728 28.3906 136.768 28.9271C138.892 29.9552 139.445 30.6704 138.981 31.7432C138.538 32.8607 136.591 32.6819 135.396 31.3856L134.378 30.3128L133.581 31.9667C132.652 33.8889 132.63 34.2018 133.294 35.4981C134.909 38.5378 139.158 39.0742 140.972 36.4815C141.857 35.2299 142.388 32.1455 142.211 29.5976C142.012 26.9602 141.105 25.1275 139.578 24.2334C138.936 23.8311 137.985 23.2947 137.454 22.9818C136.325 22.3113 135.794 21.0597 136.325 20.3892C136.923 19.6292 138.56 19.8974 139.6 20.9256L140.574 21.9537L141.348 20.1657C141.747 19.2269 142.057 18.1094 142.034 17.7071C141.99 17.3495 141.415 16.4555 140.729 15.7849C139.224 14.2651 136.923 13.8181 135.484 14.7568Z" fill="#ECECEC"/>
<path d="M86.4705 15.3378C86.1386 16.4553 83.4168 36.6155 83.5275 37.1966C83.616 37.733 83.97 37.8224 85.0322 37.733L86.4041 37.5989L86.6033 35.9002L86.8024 34.2016L88.462 34.3357L90.1216 34.4698L90.3872 36.0343C90.6306 37.5542 90.6748 37.5989 91.8698 37.733C92.7106 37.8224 93.1753 37.6883 93.3524 37.2413C93.5294 36.7943 93.2417 34.2016 92.1574 26.6471C91.3608 21.1042 90.6085 16.2318 90.4978 15.7848C90.3208 15.159 89.9667 15.0249 88.4178 15.0249C87.3999 15.0249 86.5148 15.159 86.4705 15.3378ZM89.0595 25.3955C89.2586 27.0494 89.4135 28.5246 89.4135 28.6587C89.4135 28.7928 88.971 28.8822 88.4399 28.8822H87.4663L87.931 25.2614C88.1744 23.2945 88.4399 21.8194 88.5284 22.0429C88.6169 22.2217 88.8603 23.7416 89.0595 25.3955Z" fill="#ECECEC"/>
<path d="M108.599 15.2932C108.289 15.919 108.422 29.9551 108.776 32.2796C109.285 35.811 110.436 37.599 112.471 38.0907C114.175 38.493 115.945 37.4202 116.808 35.4087C117.76 33.2183 118.003 30.3575 117.915 22.1772L117.849 15.2485H116.41H114.972L114.861 22.8924C114.773 29.6422 114.706 30.7151 114.33 31.5197C113.821 32.6372 112.626 32.7713 112.117 31.7432C111.918 31.3856 111.741 31.028 111.719 30.9833C111.697 30.9386 111.631 27.3625 111.564 23.0712L111.431 15.2485L110.104 15.1144C109.351 15.025 108.687 15.1144 108.599 15.2932Z" fill="#ECECEC"/>
<path d="M123.646 15.3378C123.314 16.4553 120.593 36.6155 120.703 37.1966C120.792 37.733 121.146 37.8224 122.208 37.733L123.58 37.5989L123.779 35.9002L123.978 34.2016L125.638 34.3357L127.297 34.4698L127.563 36.0343C127.806 37.5542 127.851 37.5989 129.046 37.733C129.886 37.8224 130.351 37.6883 130.528 37.2413C130.705 36.7943 130.417 34.2016 129.333 26.6471C128.537 21.1042 127.784 16.2318 127.674 15.7848C127.497 15.159 127.143 15.0249 125.594 15.0249C124.576 15.0249 123.691 15.159 123.646 15.3378ZM126.235 25.3955C126.434 27.0494 126.589 28.5246 126.589 28.6587C126.589 28.7928 126.147 28.8822 125.616 28.8822H124.642L125.107 25.2614C125.35 23.2945 125.616 21.8194 125.704 22.0429C125.793 22.2217 126.036 23.7416 126.235 25.3955Z" fill="#ECECEC"/>
<path d="M109.816 46.0475C108.643 46.8075 108.046 47.8803 107.647 49.7577C107.006 52.7974 107.47 56.6864 108.687 58.4744C108.975 58.9214 110.059 59.6814 111.099 60.2178C113.224 61.2459 113.777 61.9611 113.312 63.0339C112.87 64.1515 110.922 63.9726 109.727 62.6763L108.71 61.6035L107.913 63.2574C106.984 65.1796 106.961 65.4925 107.625 66.7888C109.241 69.8285 113.489 70.3649 115.304 67.7722C116.189 66.5206 116.72 63.4362 116.543 60.8883C116.344 58.2509 115.437 56.4182 113.91 55.5242C113.268 55.1218 112.316 54.5854 111.785 54.2725C110.657 53.602 110.126 52.3504 110.657 51.6799C111.254 50.9199 112.892 51.1882 113.932 52.2163L114.905 53.2444L115.68 51.4564C116.078 50.5176 116.388 49.4001 116.366 48.9978C116.322 48.6402 115.746 47.7462 115.06 47.0757C113.556 45.5558 111.254 45.1088 109.816 46.0475Z" fill="#ECECEC"/>
<path d="M193.239 46.0475C192.066 46.8075 191.469 47.8803 191.071 49.7577C190.429 52.7974 190.894 56.6864 192.111 58.4744C192.398 58.9214 193.483 59.6814 194.523 60.2178C196.647 61.2459 197.2 61.9611 196.735 63.0339C196.293 64.1515 194.346 63.9726 193.151 62.6763L192.133 61.6035L191.336 63.2574C190.407 65.1796 190.385 65.4925 191.048 66.7888C192.664 69.8285 196.912 70.3649 198.727 67.7722C199.612 66.5206 200.143 63.4362 199.966 60.8883C199.767 58.2509 198.86 56.4182 197.333 55.5242C196.691 55.1218 195.74 54.5854 195.209 54.2725C194.08 53.602 193.549 52.3504 194.08 51.6799C194.677 50.9199 196.315 51.1882 197.355 52.2163L198.329 53.2444L199.103 51.4564C199.501 50.5176 199.811 49.4001 199.789 48.9978C199.745 48.6402 199.169 47.7462 198.483 47.0757C196.979 45.5558 194.677 45.1088 193.239 46.0475Z" fill="#ECECEC"/>
<path d="M84.2798 46.5839C84.1692 46.7627 84.1028 51.8139 84.1028 57.8038V68.6662H85.519C87.1343 68.6662 87.2007 68.5321 87.2007 64.8219C87.2007 62.6316 87.245 62.4081 87.7097 62.4081C88.0859 62.4081 88.3735 63.1233 89.0374 65.5371L89.8782 68.6662H91.2944C92.0911 68.6662 92.777 68.4427 92.8655 68.1745C92.954 67.9063 92.6885 66.297 92.2681 64.5984L91.5378 61.514L92.0025 60.5306C92.7992 58.7426 93.0204 57.4015 93.0204 54.3619C93.0204 50.607 92.5336 48.4613 91.4493 47.3438C90.8076 46.718 89.9667 46.5392 87.5326 46.4051C85.8288 46.3157 84.3683 46.4051 84.2798 46.5839ZM89.9004 53.2443C90.0995 54.0937 90.0774 54.5407 89.7676 55.4794C89.4578 56.4181 89.2365 56.5969 88.3071 56.5969H87.2007V54.3619V52.1268H88.4178C89.5021 52.1268 89.6791 52.2609 89.9004 53.2443Z" fill="#ECECEC"/>
<path d="M96.5832 46.8967C96.539 47.2097 96.5168 52.2609 96.539 58.1614L96.6053 68.8896H100.588H104.571V65.9841V63.0785L102.093 62.9444C99.6148 62.8103 99.5926 62.8103 99.5926 61.7375C99.5926 60.7094 99.659 60.6647 101.429 60.5306L103.244 60.3965V57.9379V55.4793L101.429 55.3452L99.5926 55.2111V53.9148V52.5738H101.872C103.354 52.5738 104.24 52.395 104.417 52.0374C104.571 51.7245 104.682 50.5622 104.682 49.4447C104.682 48.3272 104.571 47.165 104.417 46.852C104.018 46.0474 96.7381 46.0921 96.5832 46.8967Z" fill="#ECECEC"/>
<path d="M119.818 46.8967C119.774 47.2096 119.751 52.2609 119.774 58.1614L119.84 68.8896L121.013 69.0237C121.699 69.1131 122.34 68.9343 122.517 68.6214C122.938 67.9509 122.982 47.7014 122.562 46.852C122.208 46.1368 119.973 46.1368 119.818 46.8967Z" fill="#ECECEC"/>
<path d="M137.52 46.8967C137.476 47.2096 137.454 52.2609 137.476 58.1614L137.543 68.8896L138.715 69.0237C139.401 69.1131 140.043 68.9343 140.22 68.6214C140.641 67.9509 140.685 47.7014 140.264 46.852C139.91 46.1368 137.675 46.1368 137.52 46.8967Z" fill="#ECECEC"/>
<path d="M144.38 46.8967C144.336 47.2097 144.314 52.2609 144.336 58.1614L144.402 68.8896H148.385H152.368V65.9841V63.0785L149.89 62.9444C147.412 62.8103 147.39 62.8103 147.39 61.7375C147.39 60.7094 147.456 60.6647 149.226 60.5306L151.041 60.3965V57.9379V55.4793L149.226 55.3452L147.39 55.2111V53.9148V52.5738H149.669C151.151 52.5738 152.036 52.395 152.213 52.0374C152.368 51.7245 152.479 50.5622 152.479 49.4447C152.479 48.3272 152.368 47.165 152.213 46.852C151.815 46.0474 144.535 46.0921 144.38 46.8967Z" fill="#ECECEC"/>
<path d="M155.665 46.8968C155.621 47.2097 155.599 52.2609 155.621 58.1614L155.688 68.8897H157.015H158.343L158.454 63.5256L158.564 58.1614L160.224 63.6597L161.883 69.1579L163.322 69.0238L164.76 68.8897V57.7144V46.5392H163.432H162.105L161.994 51.9033L161.883 57.2674L161.22 55.1218C160.866 53.9148 160.091 51.4563 159.516 49.6236L158.476 46.3157H157.126C156.241 46.3157 155.754 46.4945 155.665 46.8968Z" fill="#ECECEC"/>
<path d="M168.013 46.852C167.725 47.4332 167.659 50.2046 167.88 51.4115C167.991 51.948 168.345 52.1268 169.319 52.1268H170.624V60.1282C170.624 69.292 170.602 69.2473 172.439 69.0237L173.611 68.8896L173.722 60.62L173.833 52.3503L175.05 52.2162C175.714 52.1268 176.377 51.8586 176.532 51.5903C176.886 51.0092 176.909 47.5673 176.554 46.852C176.377 46.4944 175.094 46.3156 172.284 46.3156C169.473 46.3156 168.19 46.4944 168.013 46.852Z" fill="#ECECEC"/>
<path d="M180.006 46.8967C179.962 47.2097 179.94 52.2609 179.962 58.1614L180.028 68.8896H184.012H187.995V65.9841V63.0785L185.516 62.9444C183.038 62.8103 183.016 62.8103 183.016 61.7375C183.016 60.7094 183.082 60.6647 184.852 60.5306L186.667 60.3965V57.9379V55.4793L184.852 55.3452L183.016 55.2111V53.9148V52.5738H185.295C186.778 52.5738 187.663 52.395 187.84 52.0374C187.995 51.7245 188.105 50.5622 188.105 49.4447C188.105 48.3272 187.995 47.165 187.84 46.852C187.441 46.0474 180.161 46.0921 180.006 46.8967Z" fill="#ECECEC"/>
<path d="M126.744 47.5228C126.545 47.8804 126.545 66.5654 126.722 67.5041C126.832 68.13 127.363 68.2194 130.351 68.2194C134.112 68.2194 134.112 68.2194 134.112 65.7608C134.112 63.4364 133.98 63.3022 131.767 63.3022H129.687V55.2561V47.2099H128.293C127.518 47.2099 126.81 47.344 126.744 47.5228Z" fill="#ECECEC"/>
<path d="M9.94387 53.661C9.30215 53.8381 8.01872 54.3691 7.11146 54.8338L5.40759 55.6747L6.75741 57.4892C11.3379 63.663 17.2904 68.1107 24.3493 70.567L26.3187 71.2529L26.1859 70.0801C26.0974 69.4384 25.7876 67.9558 25.5 66.783C23.7518 59.9012 20.1892 55.0994 15.8078 53.7274C14.2367 53.2406 11.6035 53.2185 9.94387 53.661Z" fill="#ECECEC"/>
</svg>
