<svg width="1440" height="749" viewBox="0 0 1440 749" fill="none" xmlns="http://www.w3.org/2000/svg">
<g id="ondas-middle">
<path id="onda-middle-04" opacity="0.4" d="M-13 702.95C84.1942 663.754 181.388 643.05 278.583 640.839C375.777 638.628 472.971 635.509 570.165 631.481C667.359 627.453 764.554 620.632 861.748 611.017C958.942 601.401 1056.14 576.063 1153.33 535.002C1250.52 493.94 1347.72 482.537 1444.91 500.792V189.439C1347.72 193.765 1250.52 191.989 1153.33 184.111C1056.14 176.233 958.942 141.726 861.748 80.5888C764.554 19.4517 667.359 12.2995 570.165 59.1322C472.971 105.965 375.777 118.948 278.583 98.0816C181.388 77.2151 84.1942 72.4595 -13 83.8147V702.95Z" fill="url(#paint0_linear_141_71)"/>
<path id="onda-middle-03" opacity="0.4" d="M-13 673.352C84.1942 671.443 181.388 667.936 278.583 662.829C375.777 657.723 472.971 649.721 570.165 638.823C667.359 627.925 764.554 598.742 861.748 551.273C958.942 503.804 1056.14 509.068 1153.33 567.067C1250.52 625.065 1347.72 613.586 1444.91 532.63V211.798C1347.72 201.302 1250.52 194.634 1153.33 191.794C1056.14 188.953 958.942 166.803 861.748 125.344C764.554 83.885 667.359 66.9033 570.165 74.399C472.971 81.8946 375.777 65.1151 278.583 24.0605C181.388 -16.9942 84.1942 -5.50983 -13 58.5135V673.352Z" fill="url(#paint1_linear_141_71)"/>
<path id="onda-middle-02" opacity="0.4" d="M-13 671.042C84.1942 656.643 181.388 646.081 278.583 639.357C375.777 632.633 472.971 624.549 570.165 615.106C667.359 605.663 764.554 597.861 861.748 591.7C958.942 585.539 1056.14 584.49 1153.33 588.553C1250.52 592.615 1347.72 568.368 1444.91 515.811V187.286C1347.72 146.262 1250.52 125.185 1153.33 124.055C1056.14 122.925 958.942 124.374 861.748 128.402C764.554 132.43 667.359 108.69 570.165 57.1829C472.971 5.67568 375.777 8.45848 278.583 65.5312C181.388 122.604 84.1942 117.918 -13 51.4722V671.042Z" fill="url(#paint2_linear_141_71)"/>
<path id="onda-middle-01" opacity="0.4" d="M-5.91296 749C91.2812 725.71 188.475 712.766 285.67 710.169C382.864 707.571 480.058 689.906 577.252 657.175C674.446 624.444 771.641 630.8 868.835 676.244C966.029 721.688 1063.22 696.627 1160.42 601.062C1257.61 505.497 1354.81 496.353 1452 573.63V174.159C1354.81 175.998 1257.61 176.12 1160.42 174.524C1063.22 172.928 966.029 174.635 868.835 179.646C771.641 184.657 674.446 163.123 577.252 115.044C480.058 66.9645 382.864 48.2532 285.67 58.9095C188.475 69.5659 91.2812 62.6823 -5.91296 38.2589V749Z" fill="url(#paint3_linear_141_71)"/>
</g>
<defs>
<linearGradient id="paint0_linear_141_71" x1="-13" y1="28.6611" x2="1444.91" y2="28.6611" gradientUnits="userSpaceOnUse">
<stop stop-color="#04284D"/>
<stop offset="1" stop-color="#3082CB"/>
</linearGradient>
<linearGradient id="paint1_linear_141_71" x1="-13" y1="0" x2="1444.91" y2="0" gradientUnits="userSpaceOnUse">
<stop stop-color="#04284D"/>
<stop offset="1" stop-color="#3082CB"/>
</linearGradient>
<linearGradient id="paint2_linear_141_71" x1="-13" y1="20.5326" x2="1444.91" y2="20.5326" gradientUnits="userSpaceOnUse">
<stop stop-color="#04284D"/>
<stop offset="1" stop-color="#3082CB"/>
</linearGradient>
<linearGradient id="paint3_linear_141_71" x1="-5.91296" y1="38.2589" x2="1452" y2="38.2589" gradientUnits="userSpaceOnUse">
<stop stop-color="#04284D"/>
<stop offset="1" stop-color="#3082CB"/>
</linearGradient>
</defs>
</svg>
