<svg width="1440" height="588" viewBox="0 0 1440 588" fill="none" xmlns="http://www.w3.org/2000/svg">
<g id="ondas-middle">
<path id="onda-middle-04" class="anime-ondas-middle-04" opacity="0.4" d="M0 551.205C96 520.47 192 504.236 288 502.502C384 500.768 480 498.322 576 495.164C672 492.006 768 486.657 864 479.117C960 471.577 1056 451.709 1152 419.511C1248 387.314 1344 378.372 1440 392.687V148.545C1344 151.937 1248 150.545 1152 144.367C1056 138.19 960 111.132 864 63.1922C768 15.2527 672 9.64444 576 46.3674C480 83.0904 384 93.2709 288 76.9088C192 60.5468 96 56.8178 0 65.7218V551.205Z" fill="url(#paint0_linear_141_71)"/>
<path id="onda-middle-03" class="anime-ondas-middle-03" opacity="0.4" d="M0 527.996C96 526.5 192 523.749 288 519.745C384 515.741 480 509.466 576 500.921C672 492.376 768 469.492 864 432.27C960 395.048 1056 399.176 1152 444.654C1248 490.133 1344 481.132 1440 417.651V166.077C1344 157.847 1248 152.619 1152 150.391C1056 148.164 960 130.795 864 98.2862C768 65.7768 672 52.461 576 58.3385C480 64.2161 384 51.0588 288 18.8666C192 -13.3257 96 -4.32043 0 45.8822V527.996Z" fill="url(#paint1_linear_141_71)"/>
<path id="onda-middle-02" class="anime-ondas-middle-02" opacity="0.4" d="M0 526.185C96 514.894 192 506.612 288 501.34C384 496.067 480 489.728 576 482.324C672 474.919 768 468.802 864 463.971C960 459.139 1056 458.317 1152 461.502C1248 464.688 1344 445.675 1440 404.463V146.857C1344 114.688 1248 98.1614 1152 97.2755C1056 96.3896 960 97.5258 864 100.684C768 103.842 672 85.2272 576 44.8388C480 4.45045 384 6.63253 288 51.3851C192 96.1376 96 92.4629 0 40.3609V526.185Z" fill="url(#paint2_linear_141_71)"/>
<path id="onda-middle-01" class="anime-ondas-middle-01" opacity="0.4" d="M7 587.314C103 569.052 199 558.902 295 556.865C391 554.828 487 540.977 583 515.311C679 489.646 775 494.63 871 530.264C967 565.898 1063 546.247 1159 471.311C1255 396.376 1351 389.205 1447 449.801V136.563C1351 138.005 1255 138.101 1159 136.85C1063 135.598 967 136.937 871 140.866C775 144.795 679 127.91 583 90.2093C487 52.509 391 37.8368 295 46.1928C199 54.5487 103 49.1512 7 30V587.314Z" fill="url(#paint3_linear_141_71)"/>
</g>
<defs>
<linearGradient id="paint0_linear_141_71" x1="0" y1="22.4741" x2="1440" y2="22.4741" gradientUnits="userSpaceOnUse">
<stop stop-color="#04284D"/>
<stop offset="1" stop-color="#3082CB"/>
</linearGradient>
<linearGradient id="paint1_linear_141_71" x1="0" y1="0" x2="1440" y2="0" gradientUnits="userSpaceOnUse">
<stop stop-color="#04284D"/>
<stop offset="1" stop-color="#3082CB"/>
</linearGradient>
<linearGradient id="paint2_linear_141_71" x1="0" y1="16.1002" x2="1440" y2="16.1002" gradientUnits="userSpaceOnUse">
<stop stop-color="#04284D"/>
<stop offset="1" stop-color="#3082CB"/>
</linearGradient>
<linearGradient id="paint3_linear_141_71" x1="7" y1="30" x2="1447" y2="30" gradientUnits="userSpaceOnUse">
<stop stop-color="#04284D"/>
<stop offset="1" stop-color="#3082CB"/>
</linearGradient>
</defs>
</svg>
